<?xml version="1.0" standalone="no"?>
<!DOCTYPE svg PUBLIC "-//W3C//DTD SVG 20010904//EN"
 "http://www.w3.org/TR/2001/REC-SVG-20010904/DTD/svg10.dtd">
<svg version="1.0" xmlns="http://www.w3.org/2000/svg"
 width="1024.000000pt" height="1024.000000pt" viewBox="0 0 1024.000000 1024.000000"
 preserveAspectRatio="xMidYMid meet">

<g transform="translate(0.000000,1024.000000) scale(0.100000,-0.100000)"
fill="#000000" stroke="none">
<path d="M2873 9188 c-35 -38 -63 -101 -63 -140 0 -37 16 -60 29 -40 3 6 18
13 32 17 17 4 33 21 47 51 46 94 13 175 -45 112z"/>
<path d="M4190 9162 c-51 -17 -113 -138 -108 -211 2 -32 7 -46 17 -46 18 0
120 181 126 223 2 18 0 30 -5 27 -4 -3 -10 -1 -12 3 -1 5 -10 7 -18 4z"/>
<path d="M5894 9128 c-39 -35 -73 -98 -74 -135 0 -18 6 -23 25 -23 18 0 23 -4
19 -15 -11 -26 9 -16 42 22 40 46 72 147 53 169 -16 20 -24 18 -65 -18z"/>
<path d="M5125 9131 c-3 -6 -18 -11 -32 -11 -13 0 -39 -10 -56 -22 -131 -91
-194 -184 -204 -303 -4 -52 -2 -64 18 -89 12 -16 38 -35 57 -43 30 -12 40 -12
84 3 46 15 106 62 139 109 12 17 22 20 62 17 36 -3 47 -8 47 -21 0 -9 11 -33
25 -54 22 -31 31 -37 61 -37 21 0 33 -4 29 -10 -3 -5 2 -10 13 -10 10 0 45 25
77 55 33 30 60 55 61 55 0 0 -2 -19 -6 -42 -8 -55 -21 -78 -65 -117 -37 -32
-50 -35 -160 -31 -91 2 -191 -25 -277 -75 -123 -72 -180 -143 -196 -247 -16
-106 18 -164 134 -225 86 -45 178 -131 190 -177 25 -100 -53 -177 -281 -275
-266 -116 -376 -185 -513 -320 -83 -83 -110 -89 -37 -9 65 73 118 121 203 184
39 30 72 57 72 59 0 11 -80 -10 -116 -31 -64 -36 -226 -214 -267 -292 -60
-115 -80 -199 -75 -311 6 -113 25 -159 97 -231 73 -73 155 -108 279 -119 57
-5 107 -13 110 -17 4 -3 -59 -4 -139 -2 -136 5 -148 7 -192 32 -34 20 -47 24
-47 14 0 -8 21 -25 48 -38 26 -12 54 -28 62 -35 28 -23 125 -38 240 -37 l115
1 60 -62 c40 -41 65 -76 73 -103 26 -88 9 -190 -50 -309 -38 -74 -56 -99 -137
-186 -35 -38 -61 -72 -58 -75 12 -12 106 58 175 130 140 148 193 338 138 498
-12 32 -12 38 -2 27 24 -25 50 -123 50 -184 -1 -167 -126 -364 -308 -486 -62
-41 -83 -47 -88 -25 -5 20 -272 -130 -388 -217 -184 -139 -312 -298 -383 -475
-110 -275 -86 -518 79 -792 30 -49 54 -94 54 -99 0 -32 170 -119 251 -128 81
-9 95 -22 22 -23 -85 0 -241 33 -305 65 -29 14 -98 56 -153 93 -55 37 -112 74
-127 84 -29 19 -28 21 -29 -40 0 -34 84 -154 153 -216 110 -100 276 -163 493
-186 113 -13 203 -59 287 -148 70 -75 101 -131 113 -207 l8 -50 10 37 c5 23 5
69 0 117 -7 65 -6 78 5 74 11 -5 10 2 -3 32 -20 49 -29 60 -84 113 l-46 43 51
-26 c136 -71 215 -188 239 -355 17 -117 -34 -298 -122 -434 -48 -74 -171 -199
-226 -230 -27 -15 -25 -12 12 20 65 57 197 238 230 319 59 140 75 304 40 404
-11 30 -38 39 -30 10 39 -146 -48 -445 -150 -517 -16 -11 -20 -11 -14 -2 6 10
4 12 -10 6 -10 -4 -21 -3 -24 3 -3 5 -35 -9 -70 -30 -36 -21 -73 -39 -82 -39
-10 0 -21 -4 -24 -10 -3 -5 -11 -10 -16 -10 -6 0 3 11 19 25 17 14 33 25 37
25 4 0 19 10 33 21 l27 22 -40 -6 c-62 -10 -178 -72 -241 -129 -61 -57 -130
-153 -189 -266 l-38 -74 -213 -141 c-161 -108 -207 -143 -190 -145 42 -6 440
98 666 174 80 27 260 130 388 221 166 119 319 277 389 401 39 70 57 78 22 10
-91 -179 -300 -397 -494 -514 -164 -100 -345 -184 -480 -224 -359 -105 -418
-125 -955 -308 -294 -101 -652 -233 -710 -262 -30 -15 -86 -39 -125 -53 -38
-14 -125 -50 -192 -81 -67 -31 -124 -56 -127 -56 -2 0 -43 -18 -90 -40 -47
-22 -89 -40 -93 -40 -14 0 -75 -41 -70 -46 5 -5 156 54 172 68 5 4 19 8 31 8
20 0 164 61 228 97 22 12 28 13 24 2 -2 -7 -38 -30 -79 -51 -86 -43 -85 -49 4
-12 34 14 71 27 83 30 12 2 43 13 69 25 35 16 49 18 55 9 5 -8 9 -7 13 4 4 9
12 13 20 10 7 -2 56 10 108 27 52 17 108 32 124 34 17 1 53 8 80 15 117 29
162 41 190 51 59 21 69 19 22 -5 -84 -41 -74 -44 48 -10 182 49 287 74 325 79
65 8 153 27 165 36 6 5 20 8 30 8 11 0 58 7 105 16 77 14 144 29 385 86 135
32 311 66 505 99 102 17 233 39 291 50 165 31 677 103 854 120 55 6 165 19
245 30 250 33 373 45 577 54 51 3 97 7 101 10 5 3 72 8 148 11 77 2 139 5 139
6 0 3 84 8 233 13 96 3 177 8 181 11 5 2 104 6 220 7 165 2 210 5 207 15 -7
16 13 28 26 15 5 -5 29 -8 51 -6 36 3 37 2 12 -5 -30 -7 -30 -7 11 -12 33 -3
40 -1 41 13 3 30 -30 38 -171 45 -101 4 -136 10 -140 20 -5 11 20 13 142 11
81 -1 153 1 159 5 7 4 21 2 32 -5 16 -10 23 -10 33 0 9 9 8 12 -6 12 -9 0 -14
5 -11 10 3 6 1 10 -4 10 -6 0 -11 -3 -11 -7 0 -5 -24 -7 -52 -5 -29 1 -132 7
-228 12 -188 11 -343 12 -375 4 -18 -4 -18 -4 -3 6 27 17 284 26 302 11 10 -8
16 -9 21 -2 3 6 25 9 48 7 23 -2 48 -1 55 2 23 8 12 22 -18 22 -16 0 -30 3
-30 8 0 4 20 6 44 4 32 -3 43 -8 40 -17 -3 -7 3 -18 14 -24 15 -8 21 -8 25 2
3 9 11 9 35 1 28 -11 34 -9 56 11 l25 23 -26 5 c-14 2 -34 2 -46 -1 -20 -5
-20 -6 -1 -13 15 -6 11 -8 -15 -8 -28 -1 -31 1 -22 13 21 25 -97 31 -604 31
-289 0 -438 3 -375 7 58 4 264 8 458 9 223 1 352 5 352 12 0 6 5 5 13 -1 19
-16 177 -18 187 -3 5 10 8 9 13 -1 4 -11 31 -15 113 -16 106 -2 133 10 49 22
-199 27 -292 31 -855 31 -534 -1 -701 -4 -950 -20 -41 -3 -111 -8 -155 -10
-44 -3 -93 -8 -109 -12 l-30 -5 19 28 c10 16 35 50 56 76 38 49 68 140 56 172
-10 25 -83 20 -145 -9 -36 -16 -91 -61 -166 -133 -110 -107 -162 -149 -171
-140 -3 3 10 25 28 49 110 144 214 354 201 405 -3 13 -10 24 -14 24 -5 0 -33
-51 -64 -112 -64 -131 -165 -262 -249 -326 -95 -71 -96 -60 -6 35 143 151 206
267 246 453 24 115 24 292 -2 380 -58 204 -188 384 -358 496 -38 25 -90 53
-116 62 -62 22 -27 28 43 8 146 -43 324 -165 400 -275 16 -22 33 -38 39 -34 5
3 7 2 4 -4 -4 -6 7 -31 23 -57 46 -72 93 -207 114 -326 9 -56 11 -60 14 -28 2
20 -8 87 -22 149 -20 87 -40 142 -90 243 -74 149 -91 174 -183 270 -52 53 -60
65 -36 52 52 -27 197 -151 228 -196 16 -23 31 -37 33 -30 7 21 -69 153 -127
219 -120 138 -269 239 -422 288 -76 24 -101 27 -254 29 l-170 2 -101 61 c-138
84 -186 128 -226 209 -27 54 -34 81 -37 145 -4 99 10 154 61 242 77 130 146
210 245 282 71 52 93 73 93 91 0 27 -4 26 -118 -20 -156 -64 -301 -184 -375
-309 -62 -105 -89 -205 -90 -334 0 -81 -3 -99 -8 -70 -21 111 1 239 62 365 78
159 270 321 519 438 361 169 453 224 572 342 92 91 91 73 -2 -39 -72 -86 -214
-199 -317 -253 -75 -39 -99 -58 -74 -58 24 0 182 55 236 82 206 103 345 245
445 453 39 83 58 110 91 134 84 61 120 63 309 11 159 -43 290 -45 444 -7 113
28 196 60 196 75 0 21 281 172 321 172 35 0 90 -38 174 -120 86 -85 120 -100
222 -100 96 0 157 16 259 66 97 48 234 133 234 145 0 17 -20 9 -138 -50 -179
-91 -276 -123 -373 -122 -60 0 -105 16 -130 47 -13 16 -12 17 6 9 55 -22 124
-36 163 -31 78 10 231 68 340 129 100 56 338 155 326 136 -10 -16 26 -9 69 13
90 45 366 129 480 144 l44 6 0 -41 c0 -34 -2 -39 -13 -30 -19 15 -18 12 10
-57 24 -59 24 -59 69 -62 36 -2 55 4 103 32 33 19 72 48 88 65 50 52 62 38 21
-23 l-25 -37 52 2 c29 1 56 7 60 13 4 6 11 7 15 2 4 -5 2 -11 -4 -13 -7 -3
-13 -14 -13 -26 0 -12 -7 -34 -14 -49 l-15 -28 45 0 c54 0 57 -13 6 -33 -30
-12 -49 -13 -92 -5 -30 5 -61 15 -68 20 -27 23 -23 -3 6 -32 28 -27 36 -30 97
-30 37 0 96 8 132 17 61 17 65 17 74 0 9 -15 19 -16 62 -11 83 9 188 36 242
61 l50 23 -40 -6 c-22 -3 -55 -10 -74 -15 -19 -4 -37 -7 -39 -4 -2 2 9 7 24
11 16 4 34 10 39 14 6 4 34 15 63 25 28 11 52 23 52 27 0 4 3 7 8 7 17 -3 32
2 32 10 0 5 -28 2 -62 -5 -77 -16 -111 -18 -103 -4 4 6 12 10 18 8 7 -1 36 10
64 25 29 15 55 27 58 27 3 0 9 0 15 0 5 0 14 9 20 19 9 18 7 19 -23 15 -173
-24 -188 -24 -165 3 10 12 9 18 -6 29 -11 7 -23 11 -27 8 -5 -3 -9 -1 -9 4 0
25 -161 37 -203 16 l-31 -17 17 27 c9 14 24 37 33 51 20 31 35 103 23 111 -4
2 -6 10 -4 17 7 18 -29 56 -72 74 -46 20 -129 23 -163 6 -14 -7 -30 -13 -36
-13 -23 0 -169 -78 -199 -106 -30 -27 -30 -27 -190 -29 -88 -1 -187 -8 -220
-14 -196 -40 -417 -127 -608 -240 -133 -79 -244 -129 -298 -136 -42 -5 -40 -4
21 18 92 34 135 57 226 125 103 78 176 152 148 152 -10 0 -35 -11 -54 -23 -56
-38 -232 -142 -263 -155 -46 -20 -45 -13 3 15 54 32 236 168 245 184 14 22 -6
21 -37 -3 -63 -47 -203 -127 -275 -158 -97 -40 -135 -40 -173 3 -40 47 -133
94 -219 112 -170 36 -272 8 -456 -124 -55 -39 -106 -70 -114 -69 -7 2 -23 27
-34 56 -20 52 -20 53 -1 67 10 8 64 31 119 51 116 43 178 82 202 127 20 39 22
113 3 147 -13 24 -14 23 -25 -36 -13 -73 -31 -102 -76 -128 l-34 -19 27 29
c55 59 71 155 43 248 -18 60 -19 122 -2 156 7 13 34 38 61 55 43 26 59 30 120
30 40 0 81 6 94 13 34 19 35 11 7 -31 -18 -26 -37 -39 -68 -48 -68 -18 -95
-30 -111 -47 -14 -16 -8 -17 77 -11 118 7 209 47 295 129 29 27 38 20 23 -18
-7 -16 -14 -50 -15 -76 -3 -37 0 -46 10 -42 8 3 14 2 14 -2 0 -4 14 -16 30
-26 l31 -17 74 41 c41 22 75 36 75 31 0 -13 -100 -88 -146 -108 -33 -15 -68
-18 -215 -18 -134 0 -180 -3 -192 -14 -10 -7 -17 -17 -17 -21 0 -13 136 -28
230 -25 108 4 190 27 288 82 60 33 64 34 82 18 32 -29 97 -30 170 -2 115 44
260 126 158 89 -13 -5 -34 -6 -48 -2 -21 6 -13 11 55 33 70 23 75 26 35 22
-25 -2 -72 -7 -105 -10 l-60 -5 77 27 c42 15 75 30 72 34 -2 5 11 11 30 14 24
5 33 11 29 21 -4 10 -10 11 -23 4 -23 -12 -63 -13 -56 -2 3 5 -25 3 -62 -4
-110 -22 -118 -18 -88 42 8 15 12 32 9 37 -3 5 -7 19 -8 31 -1 11 -3 24 -4 28
0 4 -15 15 -32 24 -26 13 -33 14 -40 2 -7 -10 -9 -10 -9 0 0 7 -4 11 -9 8 -5
-3 -11 1 -15 9 -3 8 -17 15 -30 15 -26 0 -132 -46 -142 -61 -3 -5 -12 -9 -20
-9 -11 0 -13 9 -8 38 4 28 2 43 -10 55 -9 8 -16 21 -16 27 0 7 -7 10 -15 6 -9
-3 -15 0 -15 9 0 21 -51 52 -87 54 -90 4 -145 -5 -191 -28 -24 -12 -46 -21
-48 -19 -2 2 0 27 5 54 4 28 4 57 0 65 -4 8 -13 28 -19 46 -13 35 -67 73 -104
73 -12 0 -27 5 -34 12 -9 9 -12 9 -12 0 0 -7 -14 -10 -40 -8 -26 2 -50 -3 -70
-15 -17 -11 -37 -19 -46 -19 -30 0 -123 -101 -154 -166 -16 -35 -30 -72 -31
-82 -1 -9 -6 -1 -13 19 -22 70 -98 148 -116 119 -5 -7 -13 -9 -21 -5 -7 5 -44
10 -83 11 -63 3 -74 0 -98 -21 -19 -17 -28 -34 -29 -57 -2 -71 -10 -81 -74
-95 -94 -20 -172 -47 -152 -51 14 -3 153 12 200 21 5 1 12 -4 14 -11 3 -8 -1
-12 -8 -11 -20 4 -153 -41 -161 -54 -4 -6 -2 -17 3 -24 13 -15 40 -6 33 11 -3
8 15 12 63 13 61 2 64 1 33 -8 -67 -20 -65 -39 6 -64 l39 -14 -42 -1 c-23 0
-44 -4 -47 -9 -12 -18 46 -20 157 -6 l58 8 35 -42 c42 -48 103 -86 159 -99 89
-20 87 13 -3 57 -80 39 -161 109 -141 122 10 6 18 1 26 -16 12 -22 49 -43 59
-32 2 2 -10 30 -26 61 -19 35 -29 65 -25 77 5 15 3 18 -12 13 -14 -5 -15 -4
-3 4 19 14 26 8 50 -38 11 -21 24 -41 30 -45 20 -13 48 15 55 55 6 37 25 57
25 27 0 -18 45 -64 81 -83 19 -10 41 -13 58 -9 56 14 131 57 157 90 27 36 44
38 44 4 0 -12 7 -19 20 -19 13 0 27 -14 40 -40 25 -50 25 -50 -7 -50 -43 -1
-193 -46 -221 -67 -14 -11 -35 -31 -46 -46 -19 -26 -19 -31 -6 -124 7 -54 14
-124 14 -157 1 -54 -1 -60 -33 -87 -19 -15 -78 -47 -131 -69 -140 -59 -161
-76 -205 -167 -22 -43 -46 -86 -54 -96 -13 -16 -13 -19 -1 -28 30 -18 93 -30
175 -32 46 -1 81 -5 79 -8 -2 -4 -27 -13 -55 -19 -82 -20 -189 -7 -289 33
l-85 35 -103 -13 c-134 -18 -159 -23 -207 -48 -31 -15 -37 -16 -27 -4 32 38
100 59 210 65 106 5 107 5 72 21 -22 9 -68 15 -125 15 -81 1 -97 -2 -156 -30
-64 -31 -152 -110 -201 -181 l-19 -28 6 50 c7 57 -20 177 -56 247 -34 66 -127
151 -213 194 -42 20 -74 39 -71 42 9 9 130 -41 182 -75 86 -57 127 -118 173
-256 17 -52 26 -67 38 -65 14 3 16 14 14 53 -6 126 -64 235 -164 310 -90 67
-144 80 -287 66 -64 -6 -161 -20 -216 -30 l-100 -20 -53 26 c-104 50 -137 148
-92 279 28 82 82 157 161 223 101 84 153 112 404 211 315 124 322 128 385 190
112 109 131 273 45 385 -22 30 -80 63 -90 53 -3 -2 12 -37 33 -78 42 -83 48
-151 18 -208 -24 -47 -28 -36 -10 26 13 43 13 59 3 90 -16 50 -74 155 -99 177
-29 26 -25 49 15 84 50 44 76 55 216 96 68 20 167 55 219 78 87 38 102 42 175
41 65 0 103 -8 207 -42 173 -57 302 -81 481 -92 83 -5 153 -8 154 -6 10 10
-91 40 -197 60 -68 12 -125 27 -127 33 -2 6 17 16 42 22 71 18 210 86 279 136
35 26 91 80 125 120 51 62 69 75 99 80 98 16 190 72 222 135 19 37 24 120 8
120 -5 0 -13 11 -19 24 -11 22 -16 24 -68 21 -88 -5 -135 -14 -176 -31 -36
-15 -37 -14 -30 3 27 64 28 72 19 104 -5 19 -15 34 -22 34 -7 0 -17 6 -21 14
-5 8 -16 11 -29 7 -11 -4 -23 -2 -27 5 -5 8 -29 9 -79 5 -123 -12 -265 -100
-281 -176 -4 -19 -14 -44 -21 -56 -8 -11 -12 -23 -9 -26 3 -2 7 -19 9 -37 6
-49 18 -57 76 -45 34 7 50 7 50 0 0 -5 7 -1 15 10 22 29 18 1 -10 -59 -13 -30
-32 -94 -41 -143 -9 -49 -22 -94 -28 -100 -11 -12 -165 -54 -196 -54 -9 0 -72
16 -141 36 -109 32 -138 37 -239 38 -96 1 -125 -3 -174 -21 -77 -29 -83 -23
-9 10 100 45 239 53 378 22 l30 -7 -25 21 c-38 30 -106 46 -205 46 -129 0
-201 -27 -296 -110 -61 -54 -82 -66 -138 -80 -180 -46 -252 -81 -343 -164 -31
-28 -65 -51 -76 -51 -11 0 -34 12 -51 26 -58 48 -37 129 56 214 82 75 126 97
208 103 110 9 201 46 257 106 26 29 56 51 67 51 31 0 73 19 66 30 -3 6 1 7 10
4 19 -8 48 15 41 31 -2 7 9 25 25 41 16 15 29 36 29 45 0 10 5 21 10 24 15 9
12 22 -6 29 -12 5 -15 2 -10 -10 8 -20 -10 -53 -43 -81 -43 -38 -48 -26 -7 14
21 21 33 39 27 41 -9 3 -9 7 0 18 8 10 9 14 0 14 -8 0 -7 9 4 30 21 40 18 50
-5 20 -11 -14 -20 -19 -20 -12 0 21 -18 13 -22 -10 -2 -12 -8 -23 -13 -25 -9
-3 -18 21 -38 104 -2 7 -7 16 -12 20 -4 4 -5 1 -1 -7 7 -13 6 -13 -6 0 -26 29
-57 41 -77 30 -11 -6 -29 -6 -41 -2 -36 13 -89 -9 -147 -62 -30 -27 -55 -47
-58 -45 -2 2 2 23 8 46 10 37 8 48 -12 91 -22 48 -61 86 -61 60 0 -6 -9 -2
-20 10 -12 12 -27 22 -35 22 -7 0 -20 3 -28 6 -8 3 -18 1 -22 -5z m1609 -296
c-4 -10 5 -20 30 -30 32 -14 35 -18 29 -45 -5 -27 -3 -31 26 -36 17 -4 31 -10
31 -14 0 -4 -35 -41 -79 -81 -87 -82 -168 -135 -221 -145 -34 -7 -34 -6 -18
12 9 10 24 50 33 88 17 76 55 144 119 218 42 48 60 60 50 33z m803 -1811 c-3
-3 -12 -4 -19 -1 -8 3 -5 6 6 6 11 1 17 -2 13 -5z m-20 -20 c-3 -3 -12 -4 -19
-1 -8 3 -5 6 6 6 11 1 17 -2 13 -5z m-1054 -271 c-8 -25 -44 -63 -58 -63 -7 0
4 18 24 39 42 46 42 46 34 24z m2067 -127 c0 -10 -30 -15 -132 -19 -147 -5
-235 -25 -376 -81 -48 -19 -88 -33 -90 -31 -12 12 230 110 319 129 88 19 279
21 279 2z m-1602 -183 c47 -11 18 -18 -76 -18 -95 0 -99 -1 -172 -41 -41 -22
-114 -62 -163 -88 -48 -26 -92 -46 -98 -44 -6 2 13 17 41 32 29 16 81 48 116
72 78 53 132 81 181 94 36 8 120 5 171 -7z m2332 -43 c0 -5 -5 -10 -11 -10 -5
0 -7 5 -4 10 3 6 8 10 11 10 2 0 4 -4 4 -10z m-5237 -1142 c-74 -78 -167 -261
-193 -379 -6 -30 -15 -90 -19 -134 l-8 -80 -2 71 c-2 138 34 257 121 399 44
70 113 155 127 155 3 0 -9 -15 -26 -32z m1193 -1918 l2 -125 -8 125 c-4 69
-11 134 -14 145 l-8 20 14 -20 c8 -13 13 -61 14 -145z m-206 -533 c-48 -67
-152 -170 -237 -235 -114 -86 -195 -142 -207 -142 -6 0 7 12 29 27 48 32 200
151 273 212 29 25 78 76 109 113 62 77 80 90 33 25z m1288 -294 c-16 -2 -40
-2 -55 0 -16 2 -3 4 27 4 30 0 43 -2 28 -4z m105 0 c-13 -2 -33 -2 -45 0 -13
2 -3 4 22 4 25 0 35 -2 23 -4z m998 -13 c5 0 9 -3 9 -7 0 -5 -13 -8 -30 -8
-16 0 -30 3 -30 6 0 12 14 19 28 14 7 -3 18 -5 23 -5z m-78 -7 c-7 -2 -19 -2
-25 0 -7 3 -2 5 12 5 14 0 19 -2 13 -5z m-196 -13 c-29 -9 -103 -14 -147 -9
-37 3 53 16 120 17 45 0 50 -1 27 -8z m-301 -23 c4 -4 -16 -7 -44 -7 -28 0
-54 4 -57 10 -7 11 90 8 101 -3z m113 3 c14 -1 14 -2 1 -9 -20 -11 -92 -2 -84
11 4 6 20 7 36 4 17 -3 38 -6 47 -6z m-402 -6 c-3 -3 -12 -4 -19 -1 -8 3 -5 6
6 6 11 1 17 -2 13 -5z m76 -1 c-7 -2 -21 -2 -30 0 -10 3 -4 5 12 5 17 0 24 -2
18 -5z m82 -3 c3 -6 -1 -7 -9 -4 -18 7 -21 14 -7 14 6 0 13 -4 16 -10z m545
-51 c0 -6 -39 -9 -95 -7 -91 3 -126 13 -67 20 49 6 162 -3 162 -13z m-210 1
c0 -5 -5 -10 -11 -10 -5 0 -7 5 -4 10 3 6 8 10 11 10 2 0 4 -4 4 -10z m316 -1
c6 -10 4 -11 -43 -15 -22 -1 -33 2 -33 11 0 15 67 19 76 4z m-397 -3 c-2 -2
-38 -6 -79 -9 -46 -4 -65 -3 -50 3 24 8 137 14 129 6z m531 -49 c16 -3 10 -5
-17 -6 -40 -1 -52 6 -36 22 3 4 11 3 17 -2 6 -5 22 -11 36 -14z m-165 -7 c8
-13 -5 -13 -25 0 -13 8 -13 10 2 10 9 0 20 -4 23 -10z m62 4 c-3 -3 -12 -4
-19 -1 -8 3 -5 6 6 6 11 1 17 -2 13 -5z m-4472 -614 c-28 -12 -37 -12 -30 0 3
6 16 10 28 9 21 0 21 -1 2 -9z m-50 -10 c-3 -5 -12 -10 -18 -10 -7 0 -6 4 3
10 19 12 23 12 15 0z"/>
<path d="M4234 9114 c-3 -10 -17 -46 -30 -79 -36 -92 -46 -139 -34 -169 11
-30 18 -32 48 -10 28 20 57 77 66 131 5 32 1 53 -19 94 -19 43 -25 49 -31 33z"/>
<path d="M7373 9110 c-53 -11 -112 -41 -142 -74 -19 -20 -21 -26 -9 -26 9 0
19 -7 22 -16 6 -17 9 -16 98 7 54 14 100 56 96 87 -4 30 -10 32 -65 22z"/>
<path d="M3816 8993 c-14 -14 -4 -92 18 -140 17 -36 37 -60 65 -77 43 -27 68
-36 36 -13 -16 13 -13 43 4 33 4 -3 12 -1 19 3 18 11 -11 98 -48 142 -28 35
-82 64 -94 52z"/>
<path d="M2340 8933 c-67 -23 -175 -109 -231 -186 l-28 -39 -7 51 c-6 46 -12
56 -55 92 -27 22 -53 38 -58 35 -5 -4 -12 2 -15 12 -4 10 -12 19 -19 19 -6 0
-29 3 -49 7 -22 4 -39 3 -43 -4 -3 -6 -11 -8 -16 -4 -5 3 -16 1 -23 -5 -7 -6
-21 -8 -31 -5 -9 4 -20 3 -24 -2 -3 -5 -25 -22 -48 -37 -24 -15 -43 -34 -43
-42 0 -8 -7 -18 -16 -23 -28 -16 -41 -64 -39 -147 2 -103 20 -159 67 -208 38
-40 38 -40 98 -34 71 8 132 42 162 93 24 40 31 43 22 9 -10 -42 11 -28 27 18
9 23 20 42 25 42 19 0 34 17 34 38 0 28 15 12 29 -33 6 -19 25 -50 42 -67 16
-18 26 -33 22 -33 -4 -1 5 -11 20 -24 l28 -23 42 20 c67 33 136 96 170 156 31
54 32 55 35 26 5 -47 11 -60 24 -47 8 8 14 7 24 -3 20 -20 18 -28 -17 -61 -27
-26 -59 -73 -59 -89 0 -3 7 -5 15 -5 8 0 15 -5 15 -12 0 -6 14 10 31 35 40 60
75 88 109 85 28 -2 151 54 171 79 14 17 -13 18 -43 2 -33 -18 29 55 79 93 51
37 49 50 -1 18 -39 -23 -48 -14 -16 15 11 10 20 23 20 29 0 5 -18 -8 -40 -29
-22 -21 -40 -34 -40 -28 0 7 14 25 32 42 32 30 68 116 45 108 -7 -3 -11 -11
-9 -18 2 -8 0 -11 -4 -7 -4 4 -13 3 -21 -3 -7 -7 -51 -30 -97 -53 l-83 -41 4
60 c4 51 2 64 -17 88 -12 15 -26 25 -31 21 -5 -3 -12 2 -15 10 -5 12 -18 15
-55 13 -27 -1 -50 0 -51 4 -2 4 -23 0 -48 -8z"/>
<path d="M6151 8909 c-45 -74 -52 -192 -13 -231 19 -20 20 -20 41 3 31 34 61
101 61 138 0 37 -19 78 -48 105 -21 18 -21 18 -41 -15z"/>
<path d="M2815 8850 c-3 -5 -1 -10 4 -10 6 0 11 5 11 10 0 6 -2 10 -4 10 -3 0
-8 -4 -11 -10z"/>
<path d="M2875 8850 c3 -5 8 -10 11 -10 2 0 4 5 4 10 0 6 -5 10 -11 10 -5 0
-7 -4 -4 -10z"/>
<path d="M2798 8816 c-10 -7 -18 -16 -18 -19 0 -7 50 12 65 25 16 14 -29 8
-47 -6z"/>
<path d="M4680 8801 c0 -4 -24 -7 -54 -6 -47 2 -58 -1 -75 -21 -12 -13 -27
-24 -34 -24 -7 0 -19 -15 -28 -32 -66 -140 -72 -149 -100 -155 -33 -6 -44 -18
-53 -56 -6 -24 -1 -34 29 -63 56 -53 171 -60 220 -14 16 15 30 20 44 15 39
-12 41 5 10 67 l-30 60 33 -25 c37 -28 130 -76 168 -87 14 -4 34 -4 45 0 15 5
6 14 -51 44 -54 28 -74 44 -86 72 -13 27 -13 32 -2 23 18 -15 20 -13 32 31
l10 35 1 -42 c1 -40 3 -43 30 -43 26 0 29 4 36 46 8 57 -2 119 -22 136 -13 10
-17 10 -20 1 -6 -17 -23 -17 -23 0 0 7 -16 21 -35 30 -41 19 -45 20 -45 8z"/>
<path d="M5752 8764 c-12 -13 -19 -24 -14 -24 11 0 47 39 41 44 -2 2 -14 -7
-27 -20z"/>
<path d="M2830 8770 c-8 -5 -12 -11 -9 -14 2 -3 11 -1 19 4 8 5 12 11 9 14 -2
3 -11 1 -19 -4z"/>
<path d="M3565 8761 c-78 -35 -175 -167 -175 -238 0 -49 5 -52 37 -21 l23 21
0 -26 c0 -42 28 -34 81 23 33 35 54 70 68 112 21 63 28 133 13 142 -4 2 -26
-3 -47 -13z"/>
<path d="M2955 8666 c-6 -43 -3 -63 11 -93 19 -38 78 -87 98 -80 6 2 14 30 18
62 10 78 -8 116 -68 144 -24 12 -46 21 -48 21 -3 0 -8 -25 -11 -54z"/>
<path d="M7187 8708 c-88 -18 -174 -83 -213 -160 -23 -46 -24 -48 -4 -48 14 0
18 -5 13 -17 -10 -29 -64 -81 -90 -88 -14 -3 -23 -9 -20 -12 14 -14 187 32
260 68 90 46 103 34 32 -29 -50 -44 -129 -71 -232 -80 -35 -2 -63 -9 -63 -14
0 -5 -10 -4 -22 2 -21 10 -21 9 2 -9 47 -38 211 -16 332 45 37 19 72 34 78 34
6 0 15 -11 20 -24 8 -21 13 -23 57 -19 71 7 119 24 263 92 l25 12 -25 -6 c-14
-3 -45 -10 -70 -15 -25 -5 -56 -13 -69 -16 -17 -5 -22 -4 -17 4 4 7 17 12 28
12 11 0 36 9 55 21 18 12 40 18 49 15 8 -3 12 -2 9 3 -7 13 6 20 46 25 19 3
45 9 59 15 24 9 24 10 -10 10 -19 0 -62 -6 -95 -14 -75 -18 -80 -18 -67 -2 6
7 48 28 94 46 46 18 93 38 106 44 26 12 30 33 5 22 -10 -4 -42 -10 -70 -13
-29 -2 -53 -7 -53 -11 0 -3 -38 -7 -83 -9 l-83 -3 -13 40 c-8 29 -21 46 -42
57 -17 8 -33 13 -36 10 -3 -3 -14 -1 -24 4 -25 14 -87 17 -132 8z m291 -135
c-10 -2 -26 -2 -35 0 -10 3 -2 5 17 5 19 0 27 -2 18 -5z m17 -73 c-3 -5 -12
-10 -18 -10 -7 0 -6 4 3 10 19 12 23 12 15 0z m-52 -17 c-7 -2 -19 -2 -25 0
-7 3 -2 5 12 5 14 0 19 -2 13 -5z"/>
<path d="M2770 8670 c-19 -17 -26 -27 -15 -21 19 9 63 51 54 51 -3 0 -20 -14
-39 -30z"/>
<path d="M4099 8663 c-17 -20 -16 -148 0 -209 17 -63 115 -213 179 -274 59
-57 203 -140 241 -140 12 0 21 -4 21 -9 0 -15 -131 -34 -170 -25 -19 5 -60 7
-90 4 l-55 -5 41 -22 c89 -48 177 -47 379 1 133 32 141 36 126 65 -13 23 -27
25 -85 11 -31 -7 -52 -5 -95 10 -94 34 -219 111 -274 171 -91 98 -166 270
-167 381 0 45 -29 68 -51 41z"/>
<path d="M7733 8533 c9 -2 23 -2 30 0 6 3 -1 5 -18 5 -16 0 -22 -2 -12 -5z"/>
<path d="M1411 8501 c-7 -5 -21 -6 -31 -4 -10 3 -21 0 -24 -6 -4 -6 -18 -11
-31 -11 -18 0 -25 -7 -32 -37 -7 -29 -18 -43 -48 -61 l-40 -23 48 7 c26 3 47
2 47 -2 0 -13 -188 -73 -194 -62 -2 4 -3 3 -2 -4 2 -8 15 -12 33 -10 16 2 43
-2 58 -8 23 -9 26 -13 15 -20 -13 -9 -13 -10 0 -11 8 -1 20 -1 26 0 6 1 17 -6
24 -14 9 -11 16 -12 25 -5 10 8 15 8 21 -1 4 -7 3 -9 -3 -6 -5 3 -20 -7 -32
-23 l-22 -30 43 -1 c80 -2 123 3 156 17 21 8 49 11 78 7 59 -8 57 8 -6 49 -27
18 -50 36 -50 40 0 4 23 -1 50 -12 55 -22 90 -26 90 -10 0 6 -4 10 -8 10 -14
0 -82 72 -82 87 0 8 26 -8 59 -36 80 -66 140 -85 245 -78 45 3 104 12 131 19
l50 13 38 -53 c20 -29 35 -57 32 -62 -8 -13 -154 -72 -215 -86 -78 -19 -173
-17 -259 6 -41 11 -77 18 -79 15 -3 -3 5 -16 18 -30 36 -38 146 -68 255 -69
101 -1 151 17 262 92 l58 40 43 -39 c50 -44 167 -88 185 -70 6 6 17 11 25 11
22 0 150 59 245 113 48 27 89 48 91 46 9 -9 -195 -122 -272 -151 -55 -21 -79
-35 -72 -42 14 -14 99 8 175 46 35 17 104 61 154 98 50 37 105 70 122 74 39 8
94 -17 123 -56 19 -26 19 -28 2 -67 -11 -23 -67 -86 -137 -155 -133 -129 -173
-184 -190 -262 -14 -64 2 -157 35 -206 27 -40 161 -131 229 -156 29 -11 77
-23 107 -26 55 -6 55 -6 30 11 -163 116 -206 207 -165 347 15 49 31 73 109
157 127 137 205 274 206 361 0 52 -35 139 -68 170 -93 88 -285 108 -450 46
-57 -21 -133 -81 -119 -94 4 -4 62 11 130 34 145 48 217 59 287 42 60 -14 81
-35 23 -23 -126 25 -261 -7 -468 -113 -114 -58 -134 -65 -168 -60 -55 9 -113
41 -185 102 -77 66 -105 72 -214 48 -46 -11 -120 -19 -165 -19 -68 0 -86 4
-110 21 -18 14 -27 30 -25 44 4 39 -37 98 -85 120 -52 24 -112 34 -132 21z
m-141 -191 c8 -1 -7 -6 -35 -11 -50 -8 -70 -4 -47 10 11 6 46 7 82 1z m5 -35
l50 -14 -41 0 c-25 -1 -46 5 -54 14 -7 8 -11 15 -9 15 2 -1 27 -7 54 -15z"/>
<path d="M1163 8350 c-34 -14 -28 -21 7 -9 17 6 30 13 30 15 0 6 -12 4 -37 -6z"/>
<path d="M3213 8343 c-9 -3 -13 -32 -13 -93 0 -149 -48 -263 -160 -384 -80
-85 -43 -77 50 11 71 66 123 151 161 260 23 69 25 160 3 191 -16 23 -20 24
-41 15z"/>
<path d="M3935 8300 c-11 -17 22 -75 63 -112 59 -53 112 -63 136 -26 8 13 5
23 -14 43 -51 55 -172 116 -185 95z"/>
<path d="M1136 8241 c-4 -5 3 -7 14 -4 23 6 26 13 6 13 -8 0 -17 -4 -20 -9z"/>
<path d="M8232 8229 c-101 -19 -198 -82 -232 -150 -23 -44 -25 -58 -8 -41 15
15 58 16 58 2 0 -6 -7 -13 -15 -16 -8 -4 -15 -16 -14 -28 0 -20 1 -20 9 -1 5
11 9 14 9 6 1 -23 74 -7 123 27 54 37 116 111 128 153 9 30 4 60 -9 58 -3 -1
-25 -5 -49 -10z"/>
<path d="M1211 8204 c0 -11 3 -14 6 -6 3 7 2 16 -1 19 -3 4 -6 -2 -5 -13z"/>
<path d="M5580 8205 c-17 -20 0 -39 62 -71 47 -24 47 -24 157 -10 100 14 161
32 175 54 3 5 -16 5 -42 2 -26 -4 -90 -7 -142 -6 -74 1 -106 7 -144 24 -58 26
-51 25 -66 7z"/>
<path d="M3620 8189 c0 -5 -5 -7 -11 -4 -5 4 -18 1 -27 -7 -9 -8 -37 -25 -62
-37 -83 -43 -130 -113 -130 -197 0 -37 4 -47 20 -51 11 -3 20 -9 20 -13 0 -5
9 -6 21 -3 17 5 19 2 13 -21 -7 -30 0 -32 58 -14 22 6 62 32 90 57 l50 44 -8
-49 c-7 -47 -6 -48 11 -34 17 14 18 13 12 -2 -3 -10 -3 -18 2 -18 5 0 11 -9
14 -20 7 -27 49 -26 112 4 60 28 88 58 105 109 9 30 9 41 0 52 -10 12 -10 15
1 16 8 0 1 6 -15 14 -24 10 -35 10 -62 -1 -44 -19 -45 -18 -27 16 28 57 -14
174 -55 151 -12 -7 -22 -5 -35 7 -15 13 -21 14 -39 3 -15 -9 -23 -10 -31 -2
-14 14 -27 14 -27 0z"/>
<path d="M6723 8133 c-28 -5 -29 -23 -3 -56 39 -49 85 -69 157 -68 37 0 71 5
76 10 5 5 16 7 23 4 8 -3 17 3 21 13 9 25 -49 71 -112 89 -48 13 -115 16 -162
8z"/>
<path d="M6040 8122 c-14 -4 -34 -12 -45 -19 -17 -10 -17 -13 -5 -29 23 -27
111 -64 155 -64 42 0 100 14 124 29 13 8 13 12 1 26 -37 45 -162 76 -230 57z"/>
<path d="M7665 8086 c-77 -33 -130 -110 -99 -141 26 -25 105 3 142 50 19 24
39 82 30 89 -13 12 -48 13 -73 2z"/>
<path d="M5730 8030 c0 -6 6 -26 14 -45 25 -59 172 -113 209 -76 10 10 5 19
-23 43 -56 48 -132 88 -167 88 -18 0 -33 -5 -33 -10z"/>
<path d="M7158 7948 c-31 -44 -32 -124 -2 -164 22 -31 44 -42 44 -24 0 7 7 27
16 46 17 36 34 37 34 1 0 -18 2 -19 10 -7 13 20 12 86 -1 113 -17 32 -51 67
-65 67 -7 0 -23 -15 -36 -32z"/>
<path d="M8447 7935 c-82 -30 -195 -129 -184 -160 8 -20 89 -29 134 -15 93 31
180 119 174 178 -1 16 -75 15 -124 -3z"/>
<path d="M1457 7880 c-81 -14 -207 -87 -207 -120 0 -26 189 -9 265 24 44 19
95 63 95 82 0 23 -62 29 -153 14z"/>
<path d="M8981 7861 c-69 -28 -121 -64 -121 -83 0 -5 5 -6 10 -3 6 3 19 3 31
0 14 -5 17 -10 10 -19 -7 -8 -1 -15 21 -25 80 -36 298 40 298 104 0 33 -28 46
-108 51 -57 4 -78 0 -141 -25z"/>
<path d="M4008 7859 c-87 -18 -128 -34 -180 -71 -29 -20 -38 -67 -18 -98 13
-21 -10 -28 -85 -29 -75 -1 -96 10 -74 36 32 37 30 40 -22 27 -28 -7 -87 -18
-132 -24 -45 -6 -92 -18 -104 -26 -30 -19 -31 -18 -27 12 2 24 1 25 -19 11
-12 -8 -35 -36 -50 -63 -24 -42 -27 -58 -24 -114 4 -82 29 -134 80 -168 l39
-26 127 34 c206 54 363 53 571 -6 23 -7 24 -6 11 10 -24 29 -88 56 -179 76
-101 23 -198 25 -335 8 -69 -8 -103 -9 -115 -2 -56 35 -83 142 -42 164 11 6
79 10 162 9 79 -1 171 4 205 11 34 7 75 10 90 7 35 -7 132 17 195 49 48 24 64
39 31 27 -15 -5 -14 -3 2 10 11 9 28 17 37 17 9 0 20 5 24 11 5 8 -9 9 -47 5
-60 -7 -52 0 44 35 32 11 56 23 53 26 -3 3 -19 0 -37 -6 -18 -6 -46 -11 -63
-11 -28 1 -29 2 -13 14 9 7 17 19 17 26 0 7 7 10 15 6 10 -3 15 1 15 13 0 23
-38 24 -152 0z m79 -155 c-3 -3 -12 -4 -19 -1 -8 3 -5 6 6 6 11 1 17 -2 13 -5z"/>
<path d="M7816 7849 c-32 -5 -65 -14 -73 -21 -17 -13 -46 -68 -40 -74 2 -2 28
9 58 25 30 17 88 37 129 46 41 10 79 21 85 26 11 11 -77 10 -159 -2z"/>
<path d="M2272 7788 c-24 -24 -13 -56 34 -97 50 -43 68 -44 82 -2 12 33 -7 84
-37 100 -26 14 -64 14 -79 -1z"/>
<path d="M7620 7720 c-25 -5 -67 -16 -95 -25 -69 -24 -218 -100 -234 -119 -20
-23 -110 -239 -105 -248 13 -21 108 40 215 139 49 46 147 94 239 118 115 30
286 13 429 -42 82 -31 197 -40 283 -23 82 16 261 83 316 119 38 25 41 29 27
41 -18 15 -8 17 -214 -55 -87 -31 -116 -37 -185 -37 -76 1 -200 22 -215 38 -3
4 8 4 24 0 52 -11 -62 45 -133 65 -36 10 -110 21 -166 24 -55 4 -110 8 -121 9
-11 2 -40 0 -65 -4z"/>
<path d="M2250 7647 c0 -22 63 -128 91 -152 l22 -20 -7 30 c-17 70 -106 190
-106 142z"/>
<path d="M2030 7612 c-18 -9 -39 -29 -48 -44 -15 -25 -14 -31 11 -94 14 -37
24 -70 22 -74 -3 -4 -35 -20 -72 -36 -38 -15 -77 -34 -88 -41 -18 -12 -17 -13
15 -12 19 0 56 4 83 8 62 10 60 -3 -3 -26 -27 -10 -50 -23 -50 -30 0 -7 5 -13
11 -13 5 0 7 -6 3 -12 -6 -10 -4 -10 7 0 7 6 22 12 33 12 18 0 18 -1 2 -19
-27 -30 -3 -35 74 -16 53 13 80 27 112 55 l43 38 -22 22 c-40 37 -25 39 60 10
139 -48 250 -79 310 -86 49 -6 57 -4 57 10 0 9 -7 19 -15 22 -8 4 -13 10 -10
14 3 5 -17 16 -45 25 -43 14 -54 24 -86 76 -20 32 -41 59 -45 59 -16 0 -9 -36
15 -84 l24 -48 -41 6 c-76 10 -147 118 -119 180 23 52 -45 101 -155 110 -35 3
-61 -1 -83 -12z m260 -237 c27 -28 38 -45 29 -45 -17 0 -100 52 -119 75 -11
13 -8 15 17 15 21 0 41 -12 73 -45z"/>
<path d="M8592 7509 c-40 -8 -46 -14 -38 -34 8 -21 67 -45 109 -45 38 0 107
25 107 39 0 18 -30 32 -77 37 -26 3 -52 7 -58 8 -5 1 -25 -1 -43 -5z"/>
<path d="M5115 7435 c-286 -97 -464 -191 -564 -295 -113 -117 -149 -270 -87
-363 20 -30 65 -61 75 -52 2 3 -6 28 -19 57 -59 137 36 334 216 448 83 52 196
104 286 130 77 23 208 87 208 101 0 13 -6 12 -115 -26z"/>
<path d="M7735 7377 c-31 -30 -45 -52 -45 -70 0 -25 3 -27 39 -27 32 0 44 6
69 34 41 47 49 74 25 91 -28 22 -39 18 -88 -28z"/>
<path d="M2660 7396 c0 -20 61 -108 110 -157 118 -118 376 -166 600 -111 151
38 273 56 376 56 l102 1 97 -49 97 -49 -7 -41 c-3 -23 -10 -63 -15 -91 -12
-77 5 -209 35 -270 29 -61 104 -135 136 -135 19 0 17 5 -19 44 -48 52 -70 93
-88 161 -26 96 -11 254 36 374 22 56 103 204 128 234 33 38 -7 14 -52 -32
l-48 -49 -62 28 c-107 48 -189 65 -316 64 -104 0 -134 -5 -320 -51 -161 -41
-224 -52 -295 -54 -224 -4 -309 15 -431 96 -35 24 -64 38 -64 31z"/>
<path d="M2182 7224 c40 -41 155 -46 204 -9 17 13 10 14 -67 8 -69 -5 -93 -2
-119 11 -45 22 -49 20 -18 -10z"/>
<path d="M1245 7209 c-66 -127 -61 -305 8 -280 33 12 60 58 76 129 11 52 11
70 0 119 -12 51 -17 58 -41 61 -22 3 -30 -3 -43 -29z"/>
<path d="M2680 7232 c0 -5 16 -27 36 -50 44 -52 172 -117 269 -137 39 -8 130
-16 204 -19 74 -3 137 -8 139 -11 3 -3 -3 -5 -13 -5 -10 0 -16 -2 -13 -5 3 -3
101 19 219 49 182 46 276 65 337 66 21 0 13 27 -10 34 -41 10 -181 6 -263 -8
-44 -8 -134 -27 -200 -42 -249 -58 -503 -18 -643 99 -43 36 -62 45 -62 29z"/>
<path d="M5233 7183 c-21 -8 -15 -26 26 -91 27 -40 55 -69 86 -87 50 -30 51
-30 57 0 1 11 9 25 16 30 10 8 7 19 -17 52 -41 56 -134 110 -168 96z"/>
<path d="M5765 7180 c-3 -5 -1 -10 4 -10 6 0 11 5 11 10 0 6 -2 10 -4 10 -3 0
-8 -4 -11 -10z"/>
<path d="M5533 7094 c7 -39 31 -92 124 -261 28 -51 47 -93 42 -93 -24 0 -5
-48 36 -86 85 -82 281 -112 208 -32 -9 10 -39 25 -67 33 -70 21 -128 56 -142
85 -7 14 -22 61 -33 105 -31 116 -97 244 -140 269 l-34 20 6 -40z"/>
<path d="M8320 7120 c-14 -4 -51 -19 -82 -34 -31 -14 -67 -26 -80 -26 -71 0
-228 -74 -228 -106 0 -9 -8 -14 -17 -13 -28 5 -182 -85 -169 -98 3 -3 11 -1
18 4 21 17 179 80 240 95 31 8 63 11 70 7 14 -9 15 -9 -77 -34 -75 -21 -129
-52 -180 -104 -45 -47 -32 -56 17 -12 18 15 47 35 63 44 37 18 137 44 183 46
l33 1 -22 -29 c-12 -16 -24 -49 -26 -74 -5 -39 -2 -47 17 -57 43 -23 176 33
234 99 26 29 38 27 26 -5 -16 -40 -13 -57 8 -49 9 4 30 11 46 16 29 9 31 4 12
-42 -18 -42 101 -25 220 30 55 26 163 112 123 98 -14 -5 -15 -2 -5 18 6 13 20
29 31 35 17 9 16 10 -9 5 l-29 -6 17 26 c10 15 16 29 13 31 -4 4 -21 8 -103
21 -17 3 -48 -2 -68 -11 -21 -9 -49 -16 -62 -16 -21 0 -22 3 -13 23 12 26 -4
82 -21 72 -5 -3 -10 0 -10 7 0 32 -109 57 -170 38z m-205 -107 c-11 -3 -55
-18 -97 -34 -43 -16 -78 -25 -78 -20 0 5 8 11 18 14 9 3 42 15 72 26 30 11 66
20 80 20 21 -1 22 -2 5 -6z"/>
<path d="M838 7008 c-5 -28 25 -102 58 -145 26 -34 111 -90 121 -79 3 3 -1 14
-10 24 -10 10 -17 27 -17 37 0 14 3 15 15 5 41 -34 22 38 -24 93 -34 40 -100
87 -122 87 -11 0 -19 -9 -21 -22z"/>
<path d="M3255 7000 c-19 -8 -19 -9 2 -9 12 -1 25 4 28 9 7 12 -2 12 -30 0z"/>
<path d="M5730 6965 c0 -56 35 -152 68 -188 35 -37 44 -20 36 68 -9 95 -45
165 -86 165 -15 0 -18 -8 -18 -45z"/>
<path d="M5410 6990 c0 -13 18 -22 24 -11 3 5 -1 11 -9 15 -8 3 -15 1 -15 -4z"/>
<path d="M3188 6983 c6 -2 18 -2 25 0 6 3 1 5 -13 5 -14 0 -19 -2 -12 -5z"/>
<path d="M3965 6959 c-4 -6 -5 -12 -2 -15 2 -3 7 2 10 11 7 17 1 20 -8 4z"/>
<path d="M3948 6885 c-2 -19 0 -35 4 -35 4 0 8 16 8 35 0 19 -2 35 -4 35 -2 0
-6 -16 -8 -35z"/>
<path d="M8020 6870 c-8 -5 -10 -10 -5 -10 6 0 17 5 25 10 8 5 11 10 5 10 -5
0 -17 -5 -25 -10z"/>
<path d="M1860 6830 c0 -52 72 -141 145 -180 22 -12 28 -12 39 1 18 18 7 95
-17 133 -22 34 -87 66 -132 66 -29 0 -35 -4 -35 -20z"/>
<path d="M3944 6781 c3 -72 36 -161 82 -223 49 -68 61 -60 13 9 -45 64 -79
164 -79 229 0 24 -4 44 -9 44 -6 0 -9 -26 -7 -59z"/>
<path d="M5370 6813 c0 -56 110 -116 195 -106 22 2 41 6 44 9 20 20 -130 107
-201 117 -35 5 -38 4 -38 -20z"/>
<path d="M2252 6808 c-7 -7 -12 -39 -12 -75 0 -55 3 -66 31 -98 34 -39 50 -43
73 -19 21 20 22 121 1 150 -8 12 -12 24 -10 28 3 3 2 4 -1 1 -4 -2 -16 2 -28
10 -25 18 -38 19 -54 3z"/>
<path d="M2659 6769 c-6 -13 -9 -44 -6 -73 4 -43 10 -55 43 -84 48 -41 68 -39
72 11 2 24 7 35 14 31 8 -5 9 -1 5 10 -4 10 -7 26 -7 36 0 26 -63 90 -88 90
-12 0 -26 -10 -33 -21z"/>
<path d="M1145 6728 c7 -29 20 -78 28 -108 9 -30 19 -77 22 -105 12 -90 26
-128 80 -210 59 -91 111 -138 185 -166 76 -29 149 -24 326 21 192 49 258 52
303 14 17 -14 51 -56 75 -94 62 -95 105 -134 199 -179 107 -52 166 -64 299
-59 100 3 107 2 78 -10 -44 -18 -211 -17 -315 2 -44 8 -81 13 -83 12 -1 -2 15
-15 37 -30 61 -42 208 -69 346 -63 95 4 128 11 240 48 147 48 235 56 293 26
27 -15 32 -23 32 -55 0 -48 -46 -129 -99 -174 -44 -37 -105 -70 -221 -117 -62
-25 -89 -44 -153 -108 -133 -132 -185 -241 -194 -404 -5 -90 -4 -101 21 -150
24 -51 68 -112 121 -170 34 -37 101 -66 232 -100 114 -30 187 -34 362 -17 l34
3 42 -99 c43 -104 71 -140 54 -69 -18 72 -38 188 -39 222 0 19 -7 42 -15 51
-9 10 -18 40 -22 69 l-6 51 -56 0 c-31 0 -96 5 -146 10 -114 13 -208 56 -237
110 -38 73 -16 182 58 286 44 63 85 97 220 185 244 159 322 256 332 414 4 58
0 78 -18 118 -26 55 -105 127 -171 156 -65 29 -196 44 -252 30 -44 -11 -46
-10 -134 41 -118 70 -160 105 -184 151 -19 37 -19 40 -2 45 68 21 154 76 142
89 -9 8 -89 -23 -132 -51 l-38 -25 7 28 c4 15 16 45 26 67 17 34 18 40 5 53
-13 13 -24 6 -89 -59 -42 -40 -81 -83 -87 -95 -16 -32 -14 -130 5 -168 15 -33
63 -72 117 -96 15 -7 26 -19 25 -28 -3 -14 8 -16 72 -13 41 2 72 1 69 -2 -17
-18 -201 -59 -264 -59 -139 -1 -226 46 -307 167 -60 88 -177 202 -234 228 -85
38 -214 37 -385 -2 -157 -36 -200 -36 -272 -1 -94 46 -132 91 -214 258 -66
134 -99 183 -124 183 -3 0 -1 -24 6 -52z m220 -448 c22 -15 65 -40 95 -55 51
-26 60 -27 145 -22 49 4 106 9 125 11 19 3 4 -3 -35 -13 -106 -29 -200 -27
-261 5 -57 30 -134 91 -134 105 0 11 7 8 65 -31z m1990 -739 c-11 -11 -67 -51
-125 -90 -156 -106 -239 -181 -336 -306 -8 -11 -5 0 8 25 30 59 167 195 249
248 35 23 98 64 139 91 83 55 94 60 65 32z"/>
<path d="M3015 6759 c-74 -20 -157 -136 -125 -174 19 -23 40 -18 98 20 52 35
112 106 112 131 0 25 -39 36 -85 23z"/>
<path d="M1560 6651 c0 -73 81 -161 148 -161 26 0 37 17 22 35 -11 14 -10 51
3 72 12 19 -81 77 -141 86 -31 5 -32 4 -32 -32z"/>
<path d="M3163 6549 c-97 -30 -180 -124 -105 -119 42 3 45 1 31 -17 -13 -15
-10 -16 33 -10 93 13 225 100 216 144 -5 26 -95 27 -175 2z"/>
<path d="M1905 6530 c-12 -19 7 -30 51 -30 95 0 310 -61 390 -110 20 -13 43
-41 60 -76 49 -101 72 -54 33 67 -25 74 -50 102 -88 94 -16 -3 -72 9 -140 30
-95 29 -129 35 -207 35 -51 0 -96 -4 -99 -10z"/>
<path d="M9476 6484 c-6 -16 2 -18 22 -5 11 7 11 9 -1 14 -9 3 -18 -1 -21 -9z"/>
<path d="M3515 6413 c-22 -7 -57 -21 -77 -30 -50 -24 -50 -50 0 -44 6 1 12 -6
12 -17 0 -44 55 -54 148 -27 49 15 122 70 122 93 0 31 -138 48 -205 25z"/>
<path d="M9488 6413 c7 -3 16 -2 19 1 4 3 -2 6 -13 5 -11 0 -14 -3 -6 -6z"/>
<path d="M7831 6372 c-53 -29 -49 -40 16 -47 83 -10 268 -51 335 -74 32 -11
95 -40 141 -65 45 -25 109 -52 142 -61 59 -16 236 -21 293 -9 15 3 37 7 50 10
35 7 15 25 -26 23 -115 -4 -373 51 -402 87 -11 12 -1 14 72 14 75 0 91 3 153
34 135 67 141 95 11 52 -81 -27 -88 -28 -257 -23 -159 4 -183 7 -279 36 -140
42 -204 48 -249 23z"/>
<path d="M3024 6280 c-30 -10 -82 -56 -72 -65 4 -4 294 9 388 18 18 2 8 8 -40
25 -73 26 -225 38 -276 22z"/>
<path d="M6430 6076 c-49 -29 -55 -36 -54 -64 3 -61 44 -124 150 -229 56 -56
127 -116 156 -133 29 -17 42 -28 28 -24 -45 12 -114 51 -190 107 -41 30 -76
51 -78 46 -13 -35 130 -177 225 -222 62 -29 76 -32 168 -32 94 0 109 3 236 48
74 26 150 47 168 47 50 0 82 -22 176 -124 110 -121 175 -157 295 -164 150 -9
254 21 422 121 139 83 177 94 276 79 104 -16 158 -15 223 4 98 29 245 112 228
128 -2 2 -42 -9 -89 -25 -142 -48 -182 -52 -345 -34 -149 16 -157 16 -264 -16
-76 -23 -78 -23 -78 -4 0 8 4 12 8 9 4 -2 10 0 14 6 15 24 -42 7 -88 -27 -79
-56 -152 -85 -227 -91 -101 -7 -123 5 -242 127 -112 115 -156 143 -251 162
-49 10 -69 9 -154 -11 -54 -12 -129 -33 -167 -46 -94 -33 -130 -31 -214 11
-97 49 -161 120 -201 225 -17 44 -31 87 -31 97 0 20 -27 64 -38 62 -4 0 -32
-15 -62 -33z"/>
<path d="M1276 6065 c-9 -7 -25 -11 -35 -8 -10 3 -22 0 -25 -6 -4 -6 -16 -11
-27 -11 -11 0 -22 -7 -25 -15 -3 -8 -14 -17 -24 -20 -9 -3 -26 -24 -36 -48
-10 -23 -23 -45 -29 -49 -6 -5 -6 -8 2 -8 6 0 9 -8 6 -19 -3 -11 2 -30 11 -43
28 -39 19 -51 -65 -93 -44 -22 -92 -50 -107 -63 l-27 -23 25 7 c14 3 60 21
103 39 42 19 75 30 72 26 -8 -15 -242 -131 -249 -124 -3 3 -6 -1 -6 -9 0 -9
-6 -19 -12 -22 -48 -21 91 14 197 50 71 24 131 41 134 39 2 -3 -44 -27 -103
-55 -98 -46 -106 -52 -96 -70 13 -23 32 -24 120 -6 65 14 92 14 48 1 -67 -21
-128 -48 -128 -56 0 -13 57 -11 116 5 66 17 169 63 221 98 l42 28 -6 55 -6 55
83 -50 c75 -45 89 -50 144 -51 34 0 70 -4 80 -8 18 -7 16 -10 -15 -33 -45 -35
-213 -116 -255 -124 -19 -3 -34 -11 -34 -16 0 -7 30 -9 83 -6 121 7 208 50
323 159 54 52 94 101 106 128 27 58 12 74 -34 37 -105 -86 -104 -86 -197 -85
-118 0 -150 13 -179 69 -13 25 -37 62 -53 83 -45 55 -11 47 47 -13 54 -54 74
-62 74 -27 0 21 1 21 23 -6 14 -17 35 -30 58 -33 33 -6 39 -3 60 25 l23 31 33
-32 c38 -37 38 -37 17 25 -9 26 -13 54 -10 63 5 13 11 10 35 -15 16 -17 36
-31 44 -31 19 0 107 46 122 63 6 6 1 5 -10 -3 -16 -11 -15 -9 3 12 19 20 24
38 24 77 -1 27 -6 59 -12 71 -14 26 -55 26 -77 1 -15 -19 -17 -18 -56 10 -45
33 -63 35 -94 14 -12 -8 -29 -12 -37 -9 -34 13 -120 -68 -131 -122 -6 -36 -25
-47 -25 -16 0 46 -85 136 -118 125 -7 -3 -21 2 -30 10 -28 25 -86 36 -106 22z
m84 -435 c-8 -5 -19 -10 -25 -10 -5 0 -3 5 5 10 8 5 20 10 25 10 6 0 3 -5 -5
-10z"/>
<path d="M7723 6065 c-23 -7 -57 -22 -76 -34 -37 -23 -107 -95 -107 -110 0 -5
-3 -16 -6 -25 -4 -11 1 -15 23 -13 18 1 27 -3 26 -10 -5 -24 44 -13 93 20 31
20 61 52 81 87 51 85 42 108 -34 85z"/>
<path d="M704 6056 c-21 -56 72 -157 169 -184 46 -13 54 -2 22 28 -32 30 -32
42 3 40 44 -3 44 -2 18 33 -49 64 -197 122 -212 83z"/>
<path d="M3530 6015 c0 -3 16 -37 35 -75 20 -39 38 -89 41 -113 14 -104 -43
-255 -130 -341 -28 -28 -111 -96 -183 -150 -141 -106 -170 -140 -53 -62 334
222 416 319 427 508 5 80 4 90 -20 131 -35 59 -117 131 -117 102z"/>
<path d="M8398 5960 c-66 -20 -141 -71 -168 -116 -23 -36 -28 -66 -8 -46 16
16 58 15 58 -1 0 -7 -5 -18 -12 -25 -18 -18 -3 -25 34 -18 51 10 124 70 158
128 50 89 36 107 -62 78z"/>
<path d="M8720 5859 c-55 -25 -96 -62 -120 -110 l-19 -36 25 -13 c21 -12 30
-11 67 7 59 29 105 69 126 112 32 64 4 78 -79 40z"/>
<path d="M7155 5822 c-71 -21 -94 -33 -119 -61 -18 -20 -18 -20 10 -12 16 5
53 18 82 30 69 28 147 36 201 21 55 -15 62 -8 14 15 -53 26 -118 28 -188 7z"/>
<path d="M7802 5824 c-29 -7 -66 -21 -82 -29 -30 -15 -56 -52 -46 -63 3 -3 6
1 6 8 0 7 11 1 26 -15 24 -26 27 -27 72 -15 83 20 171 83 159 113 -7 19 -66
19 -135 1z"/>
<path d="M1987 5808 c-15 -11 -55 -57 -89 -102 -106 -140 -198 -220 -318 -279
-115 -56 -113 -70 3 -38 100 27 183 79 264 164 64 68 179 246 171 266 -2 5
-16 0 -31 -11z"/>
<path d="M2340 5810 c0 -21 65 -70 120 -92 61 -23 204 -29 250 -10 20 9 9 11
-59 11 -120 1 -247 38 -295 86 -9 9 -16 12 -16 5z"/>
<path d="M4404 5805 c-18 -13 -18 -14 4 -8 12 3 25 9 28 14 8 14 -10 11 -32
-6z"/>
<path d="M9100 5791 c-30 -10 -97 -42 -127 -62 -29 -17 -30 -39 -3 -32 11 3
20 0 20 -6 0 -6 9 -11 21 -11 15 0 19 -5 15 -15 -13 -36 163 -2 241 46 34 21
42 49 20 67 -17 14 -155 24 -187 13z"/>
<path d="M4245 5721 c-143 -82 -175 -109 -303 -254 -205 -233 -304 -425 -347
-671 -32 -185 -12 -316 72 -479 47 -92 137 -197 193 -227 l25 -13 -23 25 c-38
42 -147 268 -173 358 -21 74 -24 105 -23 245 0 158 1 161 38 275 59 178 136
319 258 472 84 106 139 154 280 244 58 38 114 74 125 81 10 6 14 12 8 12 -5 1
-64 -30 -130 -68z"/>
<path d="M4420 5707 c-191 -95 -342 -205 -403 -292 -17 -25 -14 -23 19 9 58
58 190 154 259 188 111 56 257 149 233 148 -2 0 -50 -24 -108 -53z"/>
<path d="M5663 5593 c-13 -19 -18 -47 -18 -94 0 -57 4 -71 24 -93 29 -30 37
-26 62 28 24 54 24 113 -1 154 -24 39 -44 41 -67 5z"/>
<path d="M2155 5601 c-39 -10 -88 -36 -104 -55 -33 -39 73 -77 158 -56 44 10
131 64 131 81 0 10 -99 39 -129 38 -14 -1 -39 -4 -56 -8z"/>
<path d="M788 5563 c7 -3 16 -2 19 1 4 3 -2 6 -13 5 -11 0 -14 -3 -6 -6z"/>
<path d="M907 5538 c-15 -11 -13 -13 17 -15 26 -1 33 2 29 13 -6 17 -24 18
-46 2z"/>
<path d="M848 5513 c7 -3 16 -2 19 1 4 3 -2 6 -13 5 -11 0 -14 -3 -6 -6z"/>
<path d="M948 5463 c7 -3 16 -2 19 1 4 3 -2 6 -13 5 -11 0 -14 -3 -6 -6z"/>
<path d="M8664 5461 c-17 -4 -36 -11 -42 -15 -7 -4 -12 -3 -12 3 0 32 -139
-54 -196 -122 l-25 -30 -20 22 c-46 49 -120 35 -208 -41 -33 -29 -66 -65 -72
-81 -11 -25 -16 -28 -42 -23 -17 4 -55 17 -84 31 -29 13 -53 20 -53 16 0 -16
52 -60 73 -63 12 -2 21 -7 19 -13 -3 -11 -66 -9 -122 4 -41 10 -91 8 -110 -4
-9 -6 -11 -4 -5 5 6 10 4 12 -8 7 -10 -3 -17 -3 -17 2 0 5 -9 11 -20 14 -11 3
-20 2 -20 -3 0 -15 57 -44 140 -71 77 -25 81 -28 45 -28 -22 0 -58 4 -80 9
-26 6 -43 5 -50 -1 -7 -7 -4 -8 8 -4 12 5 17 2 17 -10 0 -14 3 -15 15 -5 8 7
15 8 15 4 0 -16 43 -38 100 -51 l55 -13 -74 3 c-50 1 -75 -2 -78 -10 -6 -18
70 -35 149 -32 62 2 72 0 87 -19 l16 -22 65 19 c138 40 209 86 321 205 69 73
96 84 60 25 -12 -19 -21 -38 -21 -42 0 -14 63 3 93 24 34 24 35 9 2 -38 -13
-20 -22 -40 -20 -43 6 -9 -86 -50 -112 -50 -10 -1 -31 -7 -48 -15 -30 -13 -29
-13 27 -14 46 -1 68 5 122 34 67 35 128 51 76 19 l-25 -15 27 5 c15 4 30 1 34
-5 11 -18 99 -5 206 31 92 31 182 80 146 80 -9 0 -20 -4 -23 -10 -6 -10 -56
-25 -120 -34 l-40 -6 38 20 c20 11 37 26 37 33 0 6 5 4 11 -6 13 -22 29 -13
22 13 -4 15 0 20 16 21 23 2 29 3 51 12 8 3 35 11 59 17 23 6 41 13 39 15 -3
4 -53 -2 -168 -20 -65 -11 -40 11 41 34 35 10 63 23 62 29 -2 6 4 9 12 6 8 -4
15 -1 15 5 0 14 -16 14 -92 -3 -78 -18 -188 -31 -188 -22 0 4 6 17 14 29 8 12
17 36 21 54 5 27 2 37 -20 59 -21 21 -29 24 -35 13 -7 -11 -10 -9 -16 6 -8 22
-44 66 -53 64 -3 -1 -20 -4 -37 -8z m-387 -388 c-9 -10 -31 -27 -49 -37 -40
-23 -35 -17 17 23 46 34 54 38 32 14z"/>
<path d="M6133 5449 c-47 -9 -103 -46 -133 -90 -24 -32 -25 -40 -6 -33 8 3 22
2 31 -4 16 -8 16 -10 0 -25 -15 -16 -15 -17 7 -17 62 1 159 77 174 136 6 23
-8 46 -26 43 -3 -1 -24 -5 -47 -10z"/>
<path d="M5307 5340 c-11 -44 58 -129 109 -133 27 -2 29 0 26 31 -4 32 -3 33
19 22 19 -11 21 -10 16 5 -4 9 -7 18 -7 20 0 2 -22 17 -48 34 -58 37 -108 46
-115 21z"/>
<path d="M3703 5302 c-71 -106 -195 -392 -219 -507 -11 -51 -13 -53 -9 -15 3
32 2 39 -5 25 -14 -33 -11 -186 5 -250 19 -73 70 -185 84 -185 15 0 14 2 -14
105 -21 74 -26 113 -26 215 0 119 1 131 41 260 42 133 119 304 167 368 13 17
20 32 16 32 -4 0 -22 -21 -40 -48z"/>
<path d="M5805 5294 c-33 -15 -85 -35 -115 -45 -60 -21 -110 -63 -110 -91 0
-19 15 -24 25 -9 3 5 31 17 63 26 67 20 120 50 182 105 52 46 39 50 -45 14z"/>
<path d="M9080 5280 c0 -13 11 -13 30 0 12 8 11 10 -7 10 -13 0 -23 -4 -23
-10z"/>
<path d="M6464 5204 c-32 -19 -63 -26 -155 -34 -63 -5 -139 -14 -169 -19 -30
-5 -86 -9 -124 -10 -114 -1 -186 -29 -352 -138 -98 -63 -205 -109 -279 -118
-64 -8 -98 12 -162 97 -79 103 -113 132 -188 157 -116 38 -385 27 -475 -19
-90 -46 -262 -220 -273 -276 -5 -29 6 -30 41 -5 15 10 61 35 102 56 41 20 113
59 160 86 97 55 197 86 250 76 62 -12 96 -41 136 -117 45 -85 106 -156 163
-188 l42 -24 -49 49 c-42 42 -112 147 -112 168 0 4 17 -15 39 -42 90 -114 212
-193 298 -193 l48 1 -72 30 c-98 42 -154 93 -199 185 -21 41 -35 77 -32 80 3
3 27 -25 52 -61 48 -67 117 -126 195 -166 75 -39 202 -37 396 5 98 21 125 7
181 -97 52 -98 94 -150 147 -181 48 -28 247 -111 320 -133 120 -36 317 -32
527 12 63 13 144 26 180 30 36 4 83 12 105 17 34 9 37 12 20 19 -40 16 -182 8
-334 -17 -129 -22 -175 -25 -266 -20 -123 6 -168 17 -303 71 -114 46 -181 96
-207 156 -35 80 -103 178 -135 194 -57 29 -140 37 -226 20 -120 -23 -125 -19
-33 30 231 123 300 145 452 145 l98 0 -35 -35 c-48 -48 -61 -74 -41 -81 18 -7
20 -30 3 -37 -10 -4 -9 -8 2 -17 21 -16 138 -7 177 14 18 9 49 33 69 53 l37
37 -7 -43 -7 -44 43 7 c131 21 251 137 234 228 -5 32 -55 90 -69 81 -5 -3 -15
1 -22 10 -8 11 -33 17 -81 21 -60 4 -74 2 -110 -20z m-299 -74 c3 -5 1 -10 -4
-10 -6 0 -11 5 -11 10 0 6 2 10 4 10 3 0 8 -4 11 -10z m181 -2 c3 -5 -32 -8
-80 -7 -49 1 -83 5 -80 11 7 11 153 8 160 -4z m-121 -42 c17 -3 40 -5 53 -5
15 -1 21 -5 16 -12 -6 -11 -95 -8 -149 5 -11 2 -42 5 -70 7 l-50 2 45 7 c42 6
86 5 155 -4z"/>
<path d="M6652 4902 c-31 -19 -75 -53 -97 -77 -36 -38 -54 -47 -167 -84 -90
-29 -144 -41 -186 -41 -104 0 -107 -50 -5 -58 76 -5 161 17 255 65 40 21 77
40 82 42 5 2 6 -17 2 -42 -8 -55 -2 -61 73 -58 45 1 69 9 124 40 80 47 87 35
21 -38 -49 -54 -44 -63 23 -39 29 10 35 10 46 -6 12 -16 23 -18 89 -12 72 6
178 31 178 42 0 3 -15 3 -32 0 -30 -5 -31 -5 -10 6 12 6 22 17 22 24 0 7 21
19 48 27 l47 15 -36 1 c-22 1 -46 -7 -62 -19 -14 -11 -33 -20 -44 -20 -12 1
-8 5 12 14 17 7 37 21 44 30 8 10 32 25 53 33 41 16 50 33 18 33 -11 0 -20 7
-20 15 0 8 5 15 10 15 6 0 10 6 10 14 0 14 -28 15 -50 1 -6 -3 -13 1 -16 9 -3
9 -12 16 -20 16 -8 0 -14 6 -14 14 0 9 -7 12 -20 9 -13 -4 -20 0 -20 9 0 8 -9
24 -20 36 -18 19 -29 21 -151 19 -130 -1 -131 -1 -187 -35z"/>
<path d="M2530 4903 c0 -24 45 -119 60 -128 23 -14 20 3 -12 73 -33 71 -48 88
-48 55z"/>
<path d="M7191 4807 c-6 -6 -11 -14 -11 -18 0 -9 39 1 45 11 8 13 -22 19 -34
7z"/>
<path d="M2211 4761 c-20 -13 -7 -54 31 -96 40 -46 77 -65 124 -63 21 1 34 3
28 5 -6 2 -9 14 -7 27 6 31 -44 88 -101 115 -47 23 -55 25 -75 12z"/>
<path d="M1610 4721 c0 -20 90 -108 132 -129 61 -30 74 -28 82 9 5 27 8 30 21
19 31 -26 13 8 -23 43 -23 23 -58 44 -87 53 -54 16 -125 19 -125 5z"/>
<path d="M7558 4689 c-60 -9 -145 -48 -182 -84 l-30 -27 35 -16 c24 -11 29
-16 17 -19 -9 -2 -19 -10 -21 -18 -8 -20 84 -13 177 15 58 18 89 34 118 60 38
37 50 76 26 85 -27 9 -95 11 -140 4z"/>
<path d="M7115 4660 c-13 -5 -14 -9 -5 -9 8 0 24 4 35 9 13 5 14 9 5 9 -8 0
-24 -4 -35 -9z"/>
<path d="M2700 4589 c-18 -33 -126 -77 -261 -106 -68 -14 -126 -28 -129 -30
-10 -8 24 -21 91 -33 61 -12 76 -11 130 4 34 9 79 25 101 36 l39 19 -7 -22
c-17 -54 -80 -169 -98 -180 -14 -8 -102 -14 -246 -18 -227 -6 -244 -8 -268
-23 -20 -12 5 -36 37 -36 15 0 78 -10 141 -22 78 -14 156 -22 245 -22 123 -1
133 1 181 26 28 15 64 42 79 60 27 32 105 185 105 206 0 19 15 21 80 6 79 -17
290 -29 351 -20 100 15 87 46 -21 46 -138 0 -409 61 -488 110 -41 25 -49 25
-62 -1z"/>
<path d="M6635 4560 c28 -12 88 -12 80 0 -3 6 -27 10 -53 9 -35 0 -42 -3 -27
-9z"/>
<path d="M5615 4553 c-39 -5 -85 -23 -85 -34 0 -13 62 -55 99 -68 52 -17 148
-14 182 6 16 10 29 20 29 24 0 14 -68 49 -125 64 -33 8 -62 14 -65 14 -3 -1
-18 -4 -35 -6z"/>
<path d="M2011 4531 c-23 -15 -4 -41 46 -63 61 -27 129 -26 156 3 22 24 19 29
-40 55 -36 15 -140 19 -162 5z"/>
<path d="M1685 4376 l-20 -16 20 -16 c66 -53 238 -84 285 -51 l22 15 -24 15
c-37 24 -138 55 -203 62 -47 5 -64 3 -80 -9z"/>
<path d="M7076 4312 c-10 -16 29 -56 84 -86 44 -24 59 -27 104 -22 107 11 113
35 21 81 -46 23 -77 31 -131 33 -40 2 -74 0 -78 -6z"/>
<path d="M3639 4183 c5 -10 22 -29 37 -43 24 -22 23 -20 -6 18 -35 44 -47 54
-31 25z"/>
<path d="M1545 4120 c-69 -22 -125 -70 -103 -87 45 -37 214 -30 303 11 50 23
95 59 95 75 0 28 -209 28 -295 1z"/>
<path d="M2029 3980 c-61 -32 -122 -93 -117 -118 8 -40 132 -29 201 18 35 24
77 80 77 104 0 8 -15 16 -37 20 -56 9 -63 8 -124 -24z"/>
<path d="M4035 3705 c17 -8 39 -14 50 -14 11 0 0 7 -25 15 -56 17 -64 17 -25
-1z"/>
<path d="M5978 2719 c-143 -12 -250 -64 -171 -84 25 -6 254 0 398 10 33 2 186
7 340 11 154 4 287 10 295 14 8 4 38 4 65 0 28 -4 54 -5 59 -2 11 6 244 4 296
-4 26 -3 30 -2 15 5 -11 5 -155 19 -320 32 -316 25 -783 34 -977 18z m572 -29
c-85 -3 -162 -3 -170 2 -8 4 62 7 155 6 l170 -2 -155 -6z m250 0 c12 -8 10
-10 -10 -10 -14 0 -32 5 -40 10 -12 8 -10 10 10 10 14 0 32 -5 40 -10z m-525
-10 c-38 -4 -128 -7 -200 -7 l-130 1 116 6 c65 3 155 6 200 6 l84 1 -70 -7z
m672 4 c-3 -3 -12 -4 -19 -1 -8 3 -5 6 6 6 11 1 17 -2 13 -5z m-1050 -20 c-3
-3 -12 -4 -19 -1 -8 3 -5 6 6 6 11 1 17 -2 13 -5z"/>
<path d="M7355 2670 c-15 -6 -9 -9 25 -9 34 0 40 3 25 9 -11 5 -22 9 -25 9 -3
0 -14 -4 -25 -9z"/>
<path d="M7463 2663 c20 -2 54 -2 75 0 20 2 3 4 -38 4 -41 0 -58 -2 -37 -4z"/>
<path d="M7598 2663 c7 -3 16 -2 19 1 4 3 -2 6 -13 5 -11 0 -14 -3 -6 -6z"/>
<path d="M3700 2519 c-20 -6 -16 -8 18 -5 23 2 46 6 49 10 9 9 -37 6 -67 -5z"/>
<path d="M7829 2519 c-11 -7 -9 -9 7 -9 12 0 37 -3 55 -6 28 -6 32 -4 22 7
-15 15 -65 20 -84 8z"/>
<path d="M3605 2500 c-4 -7 3 -8 22 -4 38 9 42 14 10 14 -14 0 -29 -5 -32 -10z"/>
<path d="M3485 2483 c-27 -9 -44 -18 -38 -20 13 -5 123 24 123 32 0 9 -34 4
-85 -12z"/>
<path d="M3675 2488 c-27 -5 -88 -16 -135 -24 -47 -8 -139 -28 -205 -44 -189
-46 -316 -72 -321 -67 -2 2 49 16 113 32 65 15 156 36 203 47 47 11 89 24 95
29 12 12 -1 11 -50 -2 -22 -6 -78 -19 -125 -29 -102 -22 -458 -117 -590 -159
-261 -82 -393 -132 -800 -304 -182 -77 -390 -192 -390 -216 0 -5 28 2 63 16
34 14 82 32 107 39 62 20 112 37 283 99 81 29 171 59 200 65 29 7 86 24 127
37 41 14 84 25 95 25 11 1 90 19 175 40 85 22 182 46 215 53 177 40 346 77
475 105 248 53 450 126 450 161 0 13 -10 11 -26 -6 -8 -8 -22 -11 -31 -8 -12
5 -15 2 -10 -10 8 -20 3 -21 -23 -5 -16 10 -24 10 -40 0 -11 -7 -42 -14 -68
-17 -41 -4 -42 -3 -12 4 19 4 52 15 74 24 21 10 48 17 59 17 19 0 57 10 117
32 14 5 36 17 50 28 l25 19 -40 -14 c-45 -16 -75 -19 -75 -7 0 4 27 14 60 21
111 25 72 41 -45 19z m-100 -58 c-11 -5 -31 -9 -45 -9 -20 -1 -22 -3 -10 -11
13 -8 13 -10 -2 -10 -29 0 -30 19 -1 26 15 3 33 7 38 9 22 8 39 3 20 -5z m-95
-24 c0 -2 -7 -7 -16 -10 -8 -3 -12 -2 -9 4 6 10 25 14 25 6z m-160 -31 c-19
-7 -44 -13 -55 -13 -11 0 -2 5 20 13 53 17 80 17 35 0z m-83 -21 c-3 -3 -12
-4 -19 -1 -8 3 -5 6 6 6 11 1 17 -2 13 -5z m-80 -20 c-3 -3 -12 -4 -19 -1 -8
3 -5 6 6 6 11 1 17 -2 13 -5z m223 2 c0 -3 -4 -8 -10 -11 -5 -3 -10 -1 -10 4
0 6 5 11 10 11 6 0 10 -2 10 -4z m-277 -13 c-7 -2 -19 -2 -25 0 -7 3 -2 5 12
5 14 0 19 -2 13 -5z m197 -13 c-14 -4 -36 -8 -50 -8 l-25 0 25 8 c14 4 36 8
50 8 l25 0 -25 -8z m-347 -7 c-7 -2 -19 -2 -25 0 -7 3 -2 5 12 5 14 0 19 -2
13 -5z m264 -9 c-3 -3 -12 -4 -19 -1 -8 3 -5 6 6 6 11 1 17 -2 13 -5z"/>
<path d="M8035 2490 c25 -11 65 -12 65 -2 0 4 -19 8 -43 9 -31 2 -37 0 -22 -7z"/>
<path d="M7695 2470 c3 -5 15 -10 26 -10 12 0 17 -4 13 -11 -3 -6 5 -3 20 6
14 10 26 19 26 21 0 2 -21 4 -46 4 -27 0 -43 -4 -39 -10z"/>
<path d="M2505 2451 c-23 -10 -46 -29 -52 -44 -11 -23 -9 -28 14 -47 31 -24
51 -25 81 -4 19 13 52 63 52 78 0 9 -32 36 -43 36 -7 0 -30 -9 -52 -19z"/>
<path d="M7803 2463 c9 -2 23 -2 30 0 6 3 -1 5 -18 5 -16 0 -22 -2 -12 -5z"/>
<path d="M7654 2449 c-3 -5 6 -9 20 -9 31 0 34 6 6 13 -11 3 -23 1 -26 -4z"/>
<path d="M7845 2451 c-6 -5 -19 -11 -30 -14 -14 -3 -10 -5 11 -6 21 -1 31 4
31 14 0 18 0 18 -12 6z"/>
<path d="M7925 2449 c-15 -6 -11 -8 18 -8 20 -1 37 1 37 3 0 9 -37 12 -55 5z"/>
<path d="M8008 2433 c7 -3 16 -2 19 1 4 3 -2 6 -13 5 -11 0 -14 -3 -6 -6z"/>
<path d="M8052 2435 c10 -11 48 -14 53 -4 4 5 -8 9 -26 9 -18 0 -30 -2 -27 -5z"/>
<path d="M7756 2388 c3 -4 28 -8 56 -8 28 0 49 3 46 6 -9 9 -107 11 -102 2z"/>
<path d="M8238 2393 c7 -3 16 -2 19 1 4 3 -2 6 -13 5 -11 0 -14 -3 -6 -6z"/>
<path d="M7878 2383 c7 -3 16 -2 19 1 4 3 -2 6 -13 5 -11 0 -14 -3 -6 -6z"/>
<path d="M7968 2383 c7 -3 16 -2 19 1 4 3 -2 6 -13 5 -11 0 -14 -3 -6 -6z"/>
<path d="M7756 2341 c-4 -5 -2 -12 3 -15 5 -4 12 -2 15 3 4 5 2 12 -3 15 -5 4
-12 2 -15 -3z"/>
<path d="M7910 2340 l-35 -7 37 -2 c20 0 40 4 43 9 7 11 7 11 -45 0z"/>
<path d="M7708 2333 c7 -3 16 -2 19 1 4 3 -2 6 -13 5 -11 0 -14 -3 -6 -6z"/>
<path d="M7766 2304 c-18 -13 -15 -14 31 -14 29 0 54 4 57 8 3 5 -9 6 -26 4
-16 -3 -33 0 -37 6 -4 7 -13 6 -25 -4z"/>
<path d="M7898 2293 c6 -2 18 -2 25 0 6 3 1 5 -13 5 -14 0 -19 -2 -12 -5z"/>
<path d="M8080 2276 c42 -17 58 -20 45 -7 -6 5 -26 12 -45 15 l-35 6 35 -14z"/>
<path d="M8975 2261 c-3 -5 -1 -12 5 -16 5 -3 10 1 10 9 0 18 -6 21 -15 7z"/>
<path d="M6858 2086 c-1 -2 -95 -6 -208 -10 -113 -4 -257 -11 -320 -16 -63 -5
-155 -12 -205 -15 -192 -14 -424 -36 -515 -50 -52 -8 -178 -26 -280 -40 -259
-36 -608 -97 -893 -154 -301 -61 -476 -105 -752 -186 -44 -13 -150 -42 -235
-65 -200 -54 -371 -107 -390 -121 -20 -14 22 -3 67 17 18 8 166 48 329 90 164
41 301 77 305 79 10 7 236 55 251 54 23 -1 -34 -20 -252 -84 -378 -112 -455
-136 -461 -147 -3 -5 -10 -10 -15 -10 -5 0 -19 -4 -32 -9 -13 -5 -34 -12 -48
-15 -25 -7 -43 -24 -24 -24 6 0 24 7 39 15 16 8 30 12 33 10 11 -11 309 43
319 58 4 6 17 7 29 4 13 -3 29 0 37 9 10 10 27 12 56 9 22 -3 37 -2 33 2 -3 4
12 13 36 20 23 6 45 10 47 7 7 -7 -22 -24 -34 -21 -5 2 -15 -2 -21 -8 -7 -6
-63 -24 -125 -39 -109 -27 -285 -90 -339 -121 -45 -26 -26 -23 260 31 74 14
149 28 165 30 60 8 -139 -45 -228 -61 -129 -23 -168 -35 -94 -29 32 3 176 30
320 60 144 31 287 60 317 66 30 5 78 15 105 23 28 7 75 18 105 24 30 5 66 13
80 16 14 3 8 -1 -13 -10 -21 -8 -69 -21 -105 -29 -192 -41 -303 -68 -362 -86
-36 -12 -119 -34 -185 -51 -66 -16 -140 -37 -165 -46 -46 -16 -84 -43 -63 -43
7 0 15 5 18 10 3 6 11 10 16 10 6 0 7 -4 4 -10 -8 -13 -12 -14 90 19 50 16 94
26 99 21 5 -5 -23 -18 -62 -30 -84 -24 -165 -59 -139 -60 10 0 31 7 47 15 31
16 263 92 301 98 13 2 32 7 42 12 9 4 23 5 31 2 8 -3 31 -1 52 5 29 8 34 12
23 20 -11 8 -10 9 4 4 10 -3 50 2 90 10 40 9 90 17 112 19 22 2 52 7 66 13 52
21 468 107 684 142 39 6 84 13 100 16 17 3 75 14 130 26 55 11 147 26 205 34
58 7 128 18 155 24 28 6 66 13 85 16 19 2 51 9 70 14 44 11 182 30 268 36 36
3 92 11 126 19 34 8 78 15 99 15 20 0 37 4 37 9 0 5 7 12 16 15 10 4 13 2 8
-6 -5 -8 4 -9 32 -4 21 3 68 9 104 12 36 3 78 10 94 15 15 5 33 6 39 2 18 -11
89 -3 120 14 16 8 26 10 23 4 -8 -12 22 -15 48 -5 20 8 21 24 1 24 -8 0 -15 5
-15 10 0 6 14 10 30 10 24 0 30 -4 30 -21 0 -22 11 -23 145 -4 11 2 23 4 28 4
4 1 7 6 7 12 0 6 -7 9 -15 5 -8 -3 -15 -1 -15 4 0 6 7 10 15 10 8 0 15 8 16
18 0 14 2 14 8 -3 5 -11 7 -23 5 -27 -9 -15 18 -17 94 -8 98 13 402 17 420 7
6 -5 12 -4 12 2 0 6 7 11 15 11 8 0 15 4 15 8 0 5 15 7 33 6 66 -6 244 -5 297
1 51 6 86 6 135 1 11 -1 30 1 42 6 13 4 25 3 28 -2 8 -13 115 -13 115 0 0 6
-7 10 -15 10 -8 0 -15 5 -15 10 0 12 47 12 75 0 19 -8 19 -9 -2 -9 -38 -2 -37
-21 1 -21 42 0 56 -15 24 -26 -22 -8 -22 -8 7 -15 43 -10 183 -9 230 0 37 8
38 9 10 11 -16 1 -52 3 -80 4 -27 2 -69 4 -93 5 -27 1 -41 5 -37 11 4 7 39 10
85 9 76 -2 105 4 96 20 -8 12 91 6 106 -6 7 -6 34 -12 61 -14 37 -3 47 -1 47
11 0 12 2 12 9 2 8 -14 37 -17 230 -26 63 -3 97 -9 102 -18 8 -11 11 -11 18 1
7 10 21 12 57 7 27 -4 69 -9 94 -11 25 -2 67 -7 93 -13 92 -18 42 10 -103 58
-80 26 -161 55 -180 63 -119 51 -804 133 -1310 157 -224 10 -755 21 -762 16z
m1152 -155 c14 0 57 1 95 0 51 -1 65 -4 53 -11 -9 -6 -31 -8 -50 -6 -18 3
-140 5 -271 5 -149 1 -236 5 -232 11 3 5 59 8 130 7 69 -1 133 1 142 4 9 3 37
2 63 -3 25 -5 56 -8 70 -7z m-512 0 c35 8 62 3 62 -11 0 -4 -57 -8 -127 -9
-71 -1 -155 -6 -188 -11 -33 -5 -132 -12 -220 -15 -195 -7 -367 -21 -500 -40
-55 -7 -131 -16 -170 -20 -76 -7 -251 -29 -355 -44 -233 -35 -352 -53 -480
-76 -80 -14 -174 -30 -210 -35 -36 -5 -130 -24 -210 -40 -80 -17 -255 -50
-390 -75 -135 -24 -269 -50 -297 -58 -29 -9 -53 -12 -53 -8 0 12 329 81 527
111 34 5 72 14 85 19 13 6 95 24 183 40 154 30 225 42 365 61 36 5 85 14 110
20 25 6 74 15 110 21 36 5 92 14 125 19 33 5 98 14 145 19 47 6 96 13 110 17
13 3 70 9 125 14 55 5 150 16 210 24 114 15 437 45 560 51 39 2 142 7 230 10
88 4 167 11 175 15 8 5 21 5 29 1 7 -5 29 -5 49 0z m1117 -21 c58 -5 20 -6
-110 -4 -110 3 -217 4 -238 4 -28 -1 -37 3 -31 11 7 12 149 8 379 -11z m325
-26 c19 -3 40 -10 45 -16 14 -15 -115 -2 -180 17 l-50 15 75 -5 c41 -3 91 -8
110 -11z m-1044 -1 c17 -6 17 -7 -1 -13 -9 -3 -32 -4 -49 -2 -27 4 -28 6 -11
13 26 10 39 10 61 2z m-358 -14 c-18 -7 -33 -7 -45 0 -14 8 -9 10 27 10 42 -1
43 -1 18 -10z m69 5 c-3 -3 -12 -4 -19 -1 -8 3 -5 6 6 6 11 1 17 -2 13 -5z
m93 -4 c0 -5 -4 -10 -9 -10 -6 0 -13 5 -16 10 -3 6 1 10 9 10 9 0 16 -4 16
-10z m78 3 c-10 -2 -26 -2 -35 0 -10 3 -2 5 17 5 19 0 27 -2 18 -5z m189 1
c-3 -3 -12 -4 -19 -1 -8 3 -5 6 6 6 11 1 17 -2 13 -5z m88 -5 c4 -5 -7 -9 -24
-9 -39 0 -49 17 -11 18 16 0 32 -4 35 -9z m240 1 c15 -6 8 -9 -28 -9 -30 -1
-46 3 -42 9 7 12 42 12 70 0z m-1149 -29 c-2 -3 -28 -4 -56 -2 -29 2 -48 6
-42 10 13 8 103 1 98 -8z m71 13 c-3 -3 -12 -4 -19 -1 -8 3 -5 6 6 6 11 1 17
-2 13 -5z m-202 -14 c-3 -5 -27 -9 -53 -9 l-47 2 40 7 c61 11 67 11 60 0z
m-245 -24 c0 -2 -9 -6 -20 -9 -11 -3 -20 -1 -20 4 0 5 9 9 20 9 11 0 20 -2 20
-4z m-173 -13 c-17 -3 -25 -9 -21 -15 5 -8 1 -9 -10 -5 -10 4 -22 7 -27 7 -6
0 -8 4 -5 8 3 5 24 9 48 9 26 0 32 -2 15 -4z m-518 -67 c-3 -3 -24 -9 -47 -14
-36 -9 -41 -8 -31 4 6 8 27 14 47 14 19 0 33 -2 31 -4z m74 -3 c-7 -2 -19 -2
-25 0 -7 3 -2 5 12 5 14 0 19 -2 13 -5z m-203 -13 c-19 -13 -30 -13 -30 0 0 6
10 10 23 10 18 0 19 -2 7 -10z m-73 -6 c-3 -3 -12 -4 -19 -1 -8 3 -5 6 6 6 11
1 17 -2 13 -5z m-1802 -34 c-11 -5 -27 -9 -35 -9 -9 0 -8 4 5 9 11 5 27 9 35
9 9 0 8 -4 -5 -9z m1500 -20 c3 -5 1 -10 -4 -10 -6 0 -11 5 -11 10 0 6 2 10 4
10 3 0 8 -4 11 -10z m-41 -9 c8 -12 -29 -21 -84 -21 -28 0 -40 3 -32 9 7 4 24
6 37 3 13 -2 31 1 42 7 22 13 30 13 37 2z m-139 -21 c-3 -5 -16 -10 -28 -9
-21 0 -21 1 -2 9 28 12 37 12 30 0z m-648 -6 c-3 -3 -12 -4 -19 -1 -8 3 -5 6
6 6 11 1 17 -2 13 -5z m432 -28 c9 -11 6 -15 -13 -18 -21 -4 -23 -3 -13 14 14
22 12 21 26 4z m88 8 c-3 -3 -12 -4 -19 -1 -8 3 -5 6 6 6 11 1 17 -2 13 -5z
m-670 -10 c-3 -3 -12 -4 -19 -1 -8 3 -5 6 6 6 11 1 17 -2 13 -5z m482 -24
c-26 -14 -89 -21 -89 -10 0 5 10 10 23 10 12 0 28 4 36 9 8 5 21 7 29 4 12 -5
12 -7 1 -13z m-1084 -10 c-3 -5 -11 -10 -16 -10 -6 0 -7 5 -4 10 3 6 11 10 16
10 6 0 7 -4 4 -10z m-55 -10 c0 -10 -64 -30 -95 -29 -15 0 50 27 93 38 1 1 2
-3 2 -9z m1013 -7 c-7 -2 -19 -2 -25 0 -7 3 -2 5 12 5 14 0 19 -2 13 -5z
m-100 -20 c-7 -2 -21 -2 -30 0 -10 3 -4 5 12 5 17 0 24 -2 18 -5z m-80 -10
c-7 -2 -19 -2 -25 0 -7 3 -2 5 12 5 14 0 19 -2 13 -5z m-88 -18 c-27 -7 -59
-13 -70 -13 -11 0 3 6 30 13 28 7 59 13 70 13 11 0 -2 -6 -30 -13z m-720 -60
c-39 -13 -93 -26 -120 -29 -50 -5 -50 -5 10 9 33 8 80 21 105 29 25 8 52 14
60 14 8 0 -17 -10 -55 -23z m-182 -42 c-7 -2 -19 -2 -25 0 -7 3 -2 5 12 5 14
0 19 -2 13 -5z m-69 -98 c-10 -8 -26 -14 -34 -14 -11 0 -10 3 4 14 11 8 27 15
35 15 11 0 10 -4 -5 -15z"/>
<path d="M8450 1850 l-25 -8 28 -1 c15 -1 27 4 27 9 0 6 -1 10 -2 9 -2 -1 -14
-5 -28 -9z"/>
<path d="M7981 1824 c-1 -8 -58 -12 -197 -12 -139 0 -199 -3 -207 -11 -9 -10
38 -11 213 -7 124 3 253 5 288 6 42 0 61 4 57 11 -4 6 -14 8 -23 4 -8 -3 -19
0 -24 7 -6 10 -8 10 -8 1 0 -9 -16 -13 -44 -13 -26 0 -46 5 -49 13 -4 8 -6 8
-6 1z"/>
<path d="M8464 1808 c-7 -11 9 -15 76 -17 43 -2 62 1 55 7 -12 12 -125 20
-131 10z"/>
<path d="M7206 1789 c-44 -5 -84 -13 -90 -19 -18 -19 399 2 434 21 19 11 -238
9 -344 -2z"/>
<path d="M8626 1791 c-6 -9 94 -24 103 -15 3 3 -1 9 -9 14 -19 12 -87 13 -94
1z"/>
<path d="M8780 1780 c0 -6 7 -10 15 -10 8 0 15 2 15 4 0 2 -7 6 -15 10 -8 3
-15 1 -15 -4z"/>
<path d="M6953 1773 c-18 -2 -33 -8 -33 -13 0 -8 27 -8 158 -1 12 0 22 6 22
11 0 10 -80 11 -147 3z"/>
<path d="M8941 1771 c-10 -6 -10 -10 -1 -16 13 -8 24 -1 19 14 -3 6 -10 7 -18
2z"/>
<path d="M6860 1760 c-22 -7 -21 -8 13 -9 23 -1 36 3 32 9 -7 11 -10 11 -45 0z"/>
<path d="M8030 1760 c0 -5 5 -10 11 -10 5 0 7 5 4 10 -3 6 -8 10 -11 10 -2 0
-4 -4 -4 -10z"/>
<path d="M8465 1760 c-3 -5 -3 -10 2 -11 4 0 -1 -4 -12 -9 -15 -7 -11 -8 20
-8 22 0 32 2 22 5 -9 2 -15 8 -12 13 3 5 1 11 -4 14 -5 4 -12 2 -16 -4z"/>
<path d="M6733 1753 c-18 -2 -33 -10 -33 -17 0 -11 9 -11 48 -1 26 7 56 15 67
18 23 6 -35 6 -82 0z"/>
<path d="M8292 1744 c-11 -12 -6 -14 33 -14 45 0 60 12 29 24 -22 8 -26 8 -19
-4 8 -13 -8 -13 -20 -1 -6 6 -15 4 -23 -5z"/>
<path d="M8540 1736 c0 -6 9 -12 20 -13 11 -1 20 2 20 6 0 5 -9 11 -20 14 -12
3 -20 0 -20 -7z"/>
<path d="M6550 1733 c-62 -5 -90 -12 -90 -23 0 -5 24 -8 58 -5 107 8 162 17
156 26 -5 9 -31 9 -124 2z"/>
<path d="M7603 1728 c-2 -5 21 -8 51 -8 31 0 56 3 56 8 0 4 -23 7 -51 7 -28 0
-53 -3 -56 -7z"/>
<path d="M7778 1733 c6 -2 18 -2 25 0 6 3 1 5 -13 5 -14 0 -19 -2 -12 -5z"/>
<path d="M7908 1733 c18 -2 45 -2 60 0 15 2 0 4 -33 4 -33 0 -45 -2 -27 -4z"/>
<path d="M8028 1733 c12 -2 32 -2 45 0 12 2 2 4 -23 4 -25 0 -35 -2 -22 -4z"/>
<path d="M8177 1730 c23 -9 69 -8 80 3 3 4 -18 7 -48 6 -41 0 -49 -2 -32 -9z"/>
<path d="M8636 1732 c-8 -13 75 -25 88 -12 7 7 2 10 -14 10 -14 0 -35 3 -46 6
-12 3 -24 1 -28 -4z"/>
<path d="M7513 1723 c9 -2 23 -2 30 0 6 3 -1 5 -18 5 -16 0 -22 -2 -12 -5z"/>
<path d="M6336 1712 c-2 -1 -67 -11 -144 -21 -77 -11 -149 -24 -159 -31 -15
-9 -11 -10 22 -5 49 7 118 14 210 20 39 3 85 9 103 14 37 11 37 11 57 11 8 0
15 5 15 10 0 9 -95 11 -104 2z"/>
<path d="M7330 1710 c-24 -8 -23 -8 8 -9 20 -1 31 3 27 9 -3 6 -7 10 -8 9 -1
-1 -13 -5 -27 -9z"/>
<path d="M7408 1713 c6 -2 18 -2 25 0 6 3 1 5 -13 5 -14 0 -19 -2 -12 -5z"/>
<path d="M8768 1713 c6 -2 18 -2 25 0 6 3 1 5 -13 5 -14 0 -19 -2 -12 -5z"/>
<path d="M7160 1700 c-20 -6 -15 -8 25 -9 28 0 57 4 65 9 19 12 -52 12 -90 0z"/>
<path d="M8830 1702 c0 -8 69 -22 109 -22 14 1 14 2 1 9 -24 14 -110 25 -110
13z"/>
<path d="M6730 1689 c0 -5 5 -7 10 -4 6 3 10 8 10 11 0 2 -4 4 -10 4 -5 0 -10
-5 -10 -11z"/>
<path d="M6845 1689 c-11 -16 2 -22 32 -14 26 7 26 8 8 15 -28 12 -33 12 -40
-1z"/>
<path d="M6935 1689 c-4 -6 -5 -12 -3 -14 7 -7 48 7 48 16 0 13 -37 11 -45 -2z"/>
<path d="M7048 1693 c6 -2 18 -2 25 0 6 3 1 5 -13 5 -14 0 -19 -2 -12 -5z"/>
<path d="M6598 1663 c-5 -19 -2 -23 15 -22 12 0 31 5 42 10 16 7 14 9 -12 6
-23 -2 -33 1 -36 12 -2 11 -5 9 -9 -6z"/>
<path d="M5955 1659 c-4 -6 -13 -8 -21 -5 -7 3 -33 -1 -56 -8 -24 -6 -68 -13
-98 -15 -62 -3 -242 -32 -370 -61 -91 -20 -193 -40 -355 -71 -121 -23 -125
-24 -125 -44 0 -18 13 -19 79 -3 34 8 51 17 52 27 0 11 2 12 6 4 6 -17 24 -16
59 2 16 8 36 15 46 15 27 0 261 48 292 60 31 11 50 3 38 -18 -5 -6 -33 -21
-63 -31 l-54 -20 38 0 c21 -1 37 4 37 10 0 6 7 8 16 5 21 -8 84 3 84 15 0 5
-11 7 -24 3 -22 -5 -25 -3 -22 20 4 41 -2 39 176 51 47 3 93 8 103 11 10 3 32
7 50 9 18 2 63 9 101 15 63 11 68 14 51 26 -23 17 -32 17 -40 3z"/>
<path d="M6705 1660 c-18 -8 -18 -9 5 -8 14 0 36 4 50 8 24 8 24 8 -5 8 -16 0
-39 -3 -50 -8z"/>
<path d="M8200 1661 c0 -15 52 -23 64 -10 8 9 6 10 -11 6 -13 -3 -23 -1 -23 4
0 5 -7 9 -15 9 -8 0 -15 -4 -15 -9z"/>
<path d="M6450 1648 c0 -10 -4 -18 -10 -18 -5 0 -10 5 -10 10 0 6 -5 10 -11
10 -5 0 -7 -4 -4 -10 3 -6 -1 -7 -9 -4 -9 3 -16 1 -16 -5 0 -13 75 -14 105 -1
11 5 14 9 7 9 -7 1 -10 6 -7 11 3 6 2 10 -4 10 -5 0 -13 -5 -17 -11 -4 -8 -9
-7 -15 2 -7 11 -9 10 -9 -3z"/>
<path d="M6534 1651 c4 -5 0 -12 -6 -14 -7 -3 -1 -6 15 -6 29 -1 37 13 11 23
-22 8 -26 8 -20 -3z"/>
<path d="M7750 1650 c0 -5 5 -10 11 -10 5 0 7 5 4 10 -3 6 -8 10 -11 10 -2 0
-4 -4 -4 -10z"/>
<path d="M9113 1637 c5 -16 57 -31 68 -20 5 5 -7 13 -31 20 -29 7 -40 7 -37 0z"/>
<path d="M6327 1633 c-15 -2 -25 -9 -22 -14 10 -15 52 -10 59 6 3 8 2 14 -2
14 -4 -1 -19 -4 -35 -6z"/>
<path d="M8800 1630 c0 -6 7 -10 15 -10 8 0 15 2 15 4 0 2 -7 6 -15 10 -8 3
-15 1 -15 -4z"/>
<path d="M6132 1610 c-64 -15 -46 -22 38 -15 97 8 133 26 50 24 -30 -1 -70 -5
-88 -9z"/>
<path d="M7123 1613 c9 -2 25 -2 35 0 9 3 1 5 -18 5 -19 0 -27 -2 -17 -5z"/>
<path d="M6040 1590 c-13 -8 -13 -10 2 -10 9 0 20 5 23 10 8 13 -5 13 -25 0z"/>
<path d="M5881 1581 c-43 -8 -54 -31 -14 -30 15 0 51 7 78 15 28 7 36 11 17 9
-20 -3 -31 -1 -27 5 7 11 -1 11 -54 1z"/>
<path d="M6548 1573 c6 -2 18 -2 25 0 6 3 1 5 -13 5 -14 0 -19 -2 -12 -5z"/>
<path d="M5700 1550 c-25 -4 -40 -8 -35 -10 23 -6 141 2 150 11 10 10 -45 10
-115 -1z"/>
<path d="M6083 1509 c14 -8 22 -8 30 0 8 8 3 11 -18 11 -26 -1 -28 -2 -12 -11z"/>
<path d="M5785 1490 l-40 -7 37 -2 c20 0 40 4 43 9 3 6 5 9 3 9 -2 -1 -21 -5
-43 -9z"/>
<path d="M7340 1488 c0 -18 18 -34 28 -24 3 4 -2 14 -11 23 -16 16 -17 16 -17
1z"/>
<path d="M5255 1476 c-35 -7 -53 -14 -44 -18 19 -7 120 10 134 23 11 11 -11
10 -90 -5z"/>
<path d="M4801 1454 c-24 -7 -48 -17 -55 -22 -6 -5 -56 -19 -111 -31 -104 -23
-210 -49 -305 -74 -114 -30 -250 -59 -261 -55 -7 2 4 12 24 22 44 20 49 29 8
15 -28 -10 -69 -45 -60 -53 7 -6 199 31 279 54 41 11 104 26 140 31 123 20
443 98 451 111 11 17 -17 23 -36 8 -17 -14 -117 -42 -110 -30 3 4 20 11 40 14
19 4 37 11 40 16 4 6 5 10 3 9 -2 -1 -23 -7 -47 -15z"/>
<path d="M6975 1450 c-10 -11 -24 -20 -32 -20 -7 0 -13 -5 -13 -11 0 -18 101
-6 114 14 8 14 8 20 -4 27 -24 15 -45 12 -65 -10z"/>
<path d="M5120 1453 c-14 -3 -29 -8 -33 -13 -5 -4 13 -4 39 1 26 5 50 11 52
14 6 6 -20 5 -58 -2z"/>
<path d="M3248 1433 c7 -3 16 -2 19 1 4 3 -2 6 -13 5 -11 0 -14 -3 -6 -6z"/>
<path d="M4658 1433 c7 -3 16 -2 19 1 4 3 -2 6 -13 5 -11 0 -14 -3 -6 -6z"/>
<path d="M4975 1420 c-81 -20 -69 -26 17 -8 32 7 58 16 58 20 0 4 -1 7 -2 7
-2 -1 -34 -9 -73 -19z"/>
<path d="M4595 1420 c-19 -8 -19 -9 2 -9 12 -1 25 4 28 9 7 12 -2 12 -30 0z"/>
<path d="M4480 1399 c-25 -5 -71 -14 -103 -21 -32 -6 -56 -13 -53 -15 4 -4 83
9 191 32 33 7 49 13 35 13 -14 0 -45 -4 -70 -9z"/>
<path d="M5260 1400 c0 -5 7 -7 15 -4 8 4 15 8 15 10 0 2 -7 4 -15 4 -8 0 -15
-4 -15 -10z"/>
<path d="M6671 1394 c0 -11 3 -14 6 -6 3 7 2 16 -1 19 -3 4 -6 -2 -5 -13z"/>
<path d="M4835 1390 c-4 -7 3 -8 22 -4 38 9 42 14 10 14 -14 0 -29 -5 -32 -10z"/>
<path d="M4735 1374 c-27 -8 -86 -23 -130 -33 -44 -11 -69 -20 -56 -20 23 -1
251 56 260 65 8 7 -24 2 -74 -12z"/>
<path d="M2848 1373 c7 -3 16 -2 19 1 4 3 -2 6 -13 5 -11 0 -14 -3 -6 -6z"/>
<path d="M3085 1370 c-43 -10 -102 -36 -109 -48 -3 -5 28 3 70 18 97 37 113
49 39 30z"/>
<path d="M2780 1360 c-20 -6 -21 -8 -5 -8 11 0 29 3 40 8 25 11 -1 11 -35 0z"/>
<path d="M6035 1356 c-25 -18 -13 -46 20 -46 14 0 35 10 47 22 21 21 21 22 2
29 -29 12 -48 10 -69 -5z"/>
<path d="M6360 1360 c19 -13 30 -13 30 0 0 6 -10 10 -22 10 -19 0 -20 -2 -8
-10z"/>
<path d="M4288 1353 c7 -3 16 -2 19 1 4 3 -2 6 -13 5 -11 0 -14 -3 -6 -6z"/>
<path d="M1564 1324 c-18 -14 -18 -14 6 -3 31 14 36 19 24 19 -6 0 -19 -7 -30
-16z"/>
<path d="M4150 1320 c-9 -6 -10 -10 -3 -10 6 0 15 5 18 10 8 12 4 12 -15 0z"/>
<path d="M4345 1289 c-66 -16 -157 -36 -202 -43 -45 -8 -90 -19 -100 -26 -28
-17 45 -5 237 40 263 61 250 58 215 58 -16 0 -84 -13 -150 -29z"/>
<path d="M3308 1283 c7 -3 16 -2 19 1 4 3 -2 6 -13 5 -11 0 -14 -3 -6 -6z"/>
<path d="M3875 1232 c-27 -8 -45 -17 -40 -19 6 -2 35 5 65 16 65 23 47 26 -25
3z"/>
<path d="M2785 1230 c-16 -7 -17 -9 -3 -9 9 -1 20 4 23 9 7 11 7 11 -20 0z"/>
<path d="M3940 1225 c-14 -8 -20 -14 -15 -14 6 0 21 6 35 14 14 8 21 14 15 14
-5 0 -21 -6 -35 -14z"/>
<path d="M3970 1209 c-14 -6 -36 -12 -50 -14 -14 -2 -43 -11 -65 -19 -35 -14
-36 -16 -10 -12 51 6 175 41 175 49 0 9 -19 8 -50 -4z"/>
<path d="M3786 1201 c-4 -5 3 -7 14 -4 23 6 26 13 6 13 -8 0 -17 -4 -20 -9z"/>
<path d="M3344 1186 c-11 -8 -33 -16 -49 -19 l-30 -4 30 -1 c17 -1 41 7 55 18
29 23 24 27 -6 6z"/>
<path d="M3705 1145 c-16 -7 -23 -14 -15 -14 8 0 26 6 40 14 32 18 14 18 -25
0z"/>
<path d="M3780 1150 c-13 -8 -13 -10 2 -10 9 0 20 5 23 10 8 13 -5 13 -25 0z"/>
<path d="M3105 1119 c-4 -6 -5 -12 -2 -15 7 -7 37 7 37 17 0 13 -27 11 -35 -2z"/>
<path d="M2075 1110 c-3 -6 1 -7 9 -4 18 7 21 14 7 14 -6 0 -13 -4 -16 -10z"/>
<path d="M3588 1103 c7 -3 16 -2 19 1 4 3 -2 6 -13 5 -11 0 -14 -3 -6 -6z"/>
<path d="M3575 1060 c-13 -6 -15 -9 -5 -9 8 0 22 4 30 9 18 12 2 12 -25 0z"/>
<path d="M1839 1023 c-13 -15 -12 -15 9 -4 23 12 28 21 13 21 -5 0 -15 -7 -22
-17z"/>
</g>
</svg>
